<svg xmlns="http://www.w3.org/2000/svg" xmlns:xlink="http://www.w3.org/1999/xlink" width="500" zoomAndPan="magnify" viewBox="0 0 375 374.999991" height="500" preserveAspectRatio="xMidYMid meet" version="1.0"><defs><g/><clipPath id="d4fcb62243"><path d="M 123.65625 174.058594 L 251 174.058594 L 251 238 L 123.65625 238 Z M 123.65625 174.058594 " clip-rule="nonzero"/></clipPath><clipPath id="0dcf79aa58"><path d="M 59.144531 251.058594 L 72.644531 251.058594 L 72.644531 264.558594 L 59.144531 264.558594 Z M 59.144531 251.058594 " clip-rule="nonzero"/></clipPath><clipPath id="0400f74edf"><path d="M 302.09375 251.058594 L 315.59375 251.058594 L 315.59375 264.558594 L 302.09375 264.558594 Z M 302.09375 251.058594 " clip-rule="nonzero"/></clipPath></defs><rect x="-37.5" width="450" fill="#ffffff" y="-37.499999" height="449.999989" fill-opacity="1"/><rect x="-37.5" width="450" fill="#ffffff" y="-37.499999" height="449.999989" fill-opacity="1"/><rect x="-37.5" width="450" fill="#ffffff" y="-37.499999" height="449.999989" fill-opacity="1"/><g fill="#000000" fill-opacity="1"><g transform="translate(86.052246, 240.501139)"><g><path d="M -23.8125 -5.546875 L -27.125 -6.171875 L -25.015625 -17.484375 L -21.703125 -16.859375 L -21.703125 -13.828125 L -13.8125 -12.359375 L -11.71875 -23.515625 L -19.609375 -24.984375 L -20.703125 -22.15625 L -24.015625 -22.78125 L -23.46875 -25.71875 L -22.453125 -31.171875 L -21.890625 -34.109375 L -18.578125 -33.484375 L -18.59375 -30.4375 L 1.015625 -26.765625 L 2.15625 -29.59375 L 5.4375 -28.984375 L 3.3125 -17.65625 L 0.03125 -18.265625 L 0 -21.3125 L -7.484375 -22.71875 L -9.578125 -11.5625 L -2.09375 -10.15625 L -0.96875 -12.96875 L 2.3125 -12.359375 L 0.203125 -1.046875 L -3.078125 -1.65625 L -3.109375 -4.6875 L -22.71875 -8.359375 Z M -23.8125 -5.546875 "/></g></g></g><g fill="#000000" fill-opacity="1"><g transform="translate(93.024214, 207.889656)"><g><path d="M -1.875 -22.53125 L -6.296875 -14.21875 L 0.71875 -10.484375 L 4.921875 -18.40625 L 2.125 -20.1875 L 4.109375 -23.9375 L 10.8125 -20.375 L 0.5 -0.9375 L -2.453125 -2.5 L -1.578125 -5.40625 L -19.203125 -14.75 L -21.078125 -12.390625 L -24.046875 -13.96875 L -22.65625 -16.59375 L -13.75 -33.375 L -7.03125 -29.8125 L -9.03125 -26.03125 L -12.078125 -27.359375 L -16.25 -19.5 L -10.09375 -16.234375 L -5.671875 -24.546875 Z M -1.875 -22.53125 "/></g></g></g><g fill="#000000" fill-opacity="1"><g transform="translate(106.319818, 183.278792)"><g><path d="M -1.828125 -2.90625 L -0.640625 -4.515625 L -11.859375 -27.53125 L -7.859375 -31.59375 L 15.234375 -20.5625 L 16.84375 -21.78125 L 19.21875 -19.4375 L 12.5625 -12.703125 L 10.1875 -15.046875 L 11.28125 -16.65625 L 7.71875 -18.484375 L 1.390625 -12.0625 L 3.234375 -8.515625 L 4.828125 -9.625 L 7.203125 -7.28125 L 0.546875 -0.5625 Z M -0.609375 -15.875 L 3.875 -20.421875 L -5.296875 -25.078125 L -5.375 -25 Z M -0.609375 -15.875 "/></g></g></g><g fill="#000000" fill-opacity="1"><g transform="translate(128.761191, 161.721166)"><g><path d="M 0.921875 -0.515625 L -0.703125 -3.4375 L 1.609375 -5.390625 L -8.09375 -22.828125 L -10.96875 -21.859375 L -12.609375 -24.796875 L -10.015625 -26.25 L -5.140625 -28.953125 L -2.546875 -30.40625 L -0.90625 -27.46875 L -3.21875 -25.53125 L 6.3125 -8.40625 L 13.171875 -12.21875 L 11.703125 -15.40625 L 15.421875 -17.484375 L 19.203125 -10.703125 Z M 0.921875 -0.515625 "/></g></g></g><g fill="#000000" fill-opacity="1"><g transform="translate(151.67676, 149.19557)"><g><path d="M 18.4375 -32.953125 L 20.15625 -25.75 L 15.984375 -24.75 L 15.0625 -27.71875 L 10.0625 -26.53125 L 14.578125 -7.484375 L 17.625 -7.609375 L 18.390625 -4.359375 L 7.171875 -1.703125 L 6.40625 -4.953125 L 9.15625 -6.203125 L 4.640625 -25.25 L -0.3125 -24.078125 L 0.171875 -21 L -3.953125 -20.015625 L -5.671875 -27.21875 Z M 18.4375 -32.953125 "/></g></g></g><g fill="#000000" fill-opacity="1"><g transform="translate(180.01874, 142.573936)"><g><path d="M 2.90625 -24.296875 L 3.15625 -27.640625 L 14.640625 -26.765625 L 14.390625 -23.421875 L 11.375 -23.09375 L 10.765625 -15.078125 L 22.078125 -14.21875 L 22.6875 -22.234375 L 19.765625 -23.015625 L 20.015625 -26.359375 L 22.984375 -26.140625 L 28.515625 -25.71875 L 31.5 -25.5 L 31.25 -22.15625 L 28.21875 -21.8125 L 26.71875 -1.90625 L 29.65625 -1.109375 L 29.40625 2.21875 L 17.921875 1.359375 L 18.171875 -1.96875 L 21.1875 -2.328125 L 21.765625 -9.9375 L 10.453125 -10.796875 L 9.875 -3.1875 L 12.796875 -2.375 L 12.546875 0.953125 L 1.0625 0.078125 L 1.3125 -3.25 L 4.3125 -3.609375 L 5.8125 -23.515625 Z M 2.90625 -24.296875 "/></g></g></g><g fill="#000000" fill-opacity="1"><g transform="translate(213.897601, 146.795283)"><g/></g></g><g fill="#000000" fill-opacity="1"><g transform="translate(227.059486, 150.706876)"><g><path d="M 28.640625 -5.484375 L 25 -7.546875 L 26.265625 -11.25 C 26.003906 -11.738281 25.519531 -12.3125 24.8125 -12.96875 C 24.113281 -13.632812 23.3125 -14.222656 22.40625 -14.734375 C 21.070312 -15.492188 19.882812 -15.800781 18.84375 -15.65625 C 17.800781 -15.507812 17.03125 -14.992188 16.53125 -14.109375 C 16.0625 -13.285156 16.054688 -12.394531 16.515625 -11.4375 C 16.984375 -10.476562 17.976562 -9.179688 19.5 -7.546875 C 21.757812 -5.285156 23.226562 -3.15625 23.90625 -1.15625 C 24.59375 0.84375 24.375 2.832031 23.25 4.8125 C 22.070312 6.882812 20.320312 8.054688 18 8.328125 C 15.675781 8.597656 13.175781 7.96875 10.5 6.4375 C 8.59375 5.351562 7.039062 4.066406 5.84375 2.578125 C 4.644531 1.085938 3.832031 -0.484375 3.40625 -2.140625 L 6.28125 -7.203125 L 10.03125 -5.0625 L 8.59375 -1.34375 C 8.851562 -0.664062 9.328125 0.0390625 10.015625 0.78125 C 10.710938 1.519531 11.570312 2.179688 12.59375 2.765625 C 13.925781 3.523438 15.09375 3.832031 16.09375 3.6875 C 17.09375 3.539062 17.847656 3.015625 18.359375 2.109375 C 18.890625 1.171875 18.984375 0.226562 18.640625 -0.71875 C 18.304688 -1.664062 17.457031 -2.851562 16.09375 -4.28125 C 13.695312 -6.738281 12.085938 -8.953125 11.265625 -10.921875 C 10.441406 -12.898438 10.59375 -14.878906 11.71875 -16.859375 C 12.820312 -18.816406 14.554688 -19.945312 16.921875 -20.25 C 19.296875 -20.550781 21.75 -20.003906 24.28125 -18.609375 C 26.144531 -17.554688 27.679688 -16.3125 28.890625 -14.875 C 30.097656 -13.445312 30.953125 -11.960938 31.453125 -10.421875 Z M 28.640625 -5.484375 "/></g></g></g><g fill="#000000" fill-opacity="1"><g transform="translate(250.287439, 164.174201)"><g><path d="M 25.3125 -9.0625 L 23.5 -10.46875 L 19.984375 -0.984375 L 20.0625 -0.90625 L 29.609375 -4.203125 L 28.265625 -6.03125 L 30.671875 -8.375 L 38.03125 -0.859375 L 35.625 1.484375 L 33.6875 0.046875 L 18.1875 4.625 L 14 8.71875 L 15.671875 11.25 L 13.28125 13.59375 L 5.234375 5.359375 L 7.625 3.015625 L 10.125 4.75 L 14.515625 0.453125 L 19.34375 -14.640625 L 17.96875 -16.59375 L 20.375 -18.9375 L 27.71875 -11.40625 Z M 25.3125 -9.0625 "/></g></g></g><g fill="#000000" fill-opacity="1"><g transform="translate(270.785317, 185.382106)"><g><path d="M 38.0625 13.890625 L 35.0625 15.40625 L 33.234375 12.984375 L 11.890625 23.6875 L 9.390625 18.734375 L 21.09375 0.296875 L 21.03125 0.203125 L 7.8125 6.828125 L 8.625 9.734375 L 5.640625 11.234375 L 0.46875 0.953125 L 3.453125 -0.546875 L 5.3125 1.84375 L 23.15625 -7.09375 L 22.3125 -10 L 25.3125 -11.515625 L 26.65625 -8.859375 L 29.15625 -3.875 L 17.46875 14.53125 L 17.53125 14.65625 L 30.734375 8.03125 L 29.90625 5.109375 L 32.90625 3.59375 L 36.734375 11.21875 Z M 38.0625 13.890625 "/></g></g></g><g fill="#000000" fill-opacity="1"><g transform="translate(284.870437, 215.217931)"><g><path d="M 22.03125 20.546875 L 21.359375 16.453125 L 24.921875 15.3125 C 25.390625 14.675781 25.710938 13.921875 25.890625 13.046875 C 26.066406 12.179688 26.0625 11.1875 25.875 10.0625 C 25.488281 7.675781 24.320312 5.976562 22.375 4.96875 C 20.425781 3.957031 18.0625 3.679688 15.28125 4.140625 L 14.3125 4.296875 C 11.519531 4.753906 9.351562 5.769531 7.8125 7.34375 C 6.28125 8.914062 5.707031 10.867188 6.09375 13.203125 C 6.269531 14.285156 6.585938 15.25 7.046875 16.09375 C 7.503906 16.945312 8.046875 17.570312 8.671875 17.96875 L 12.421875 17.921875 L 13.09375 22.015625 L 7.671875 22.90625 C 6.191406 22.007812 4.929688 20.765625 3.890625 19.171875 C 2.847656 17.585938 2.15625 15.734375 1.8125 13.609375 C 1.207031 9.929688 1.988281 6.707031 4.15625 3.9375 C 6.332031 1.175781 9.414062 -0.53125 13.40625 -1.1875 L 14.328125 -1.34375 C 18.304688 -1.988281 21.769531 -1.359375 24.71875 0.546875 C 27.664062 2.460938 29.441406 5.273438 30.046875 8.984375 C 30.390625 11.109375 30.316406 13.085938 29.828125 14.921875 C 29.335938 16.753906 28.550781 18.332031 27.46875 19.65625 Z M 22.03125 20.546875 "/></g></g></g><g clip-path="url(#d4fcb62243)"><path fill="#000000" d="M 243.914062 211.65625 C 243.160156 214.175781 242.628906 216.550781 241.738281 218.777344 C 240.695312 221.386719 238.953125 223.429688 236.058594 224.214844 C 235.703125 224.3125 235.425781 224.824219 235.179688 225.1875 C 234.132812 226.726562 233.230469 228.378906 232.042969 229.789062 C 231.335938 230.628906 230.273438 231.410156 229.234375 231.671875 C 227.605469 232.082031 226.714844 233.105469 225.730469 234.3125 C 221.621094 239.332031 215.375 239.039062 211.496094 233.71875 C 209.113281 230.445312 207.910156 226.675781 207.207031 222.761719 C 206.621094 219.503906 206.273438 216.199219 205.914062 212.902344 C 205.820312 212.023438 205.65625 211.632812 204.671875 211.636719 C 193.171875 211.667969 181.667969 211.664062 170.167969 211.644531 C 169.292969 211.640625 169.027344 211.929688 168.96875 212.808594 C 168.597656 218.164062 168.046875 223.519531 166.023438 228.542969 C 165.179688 230.644531 164.09375 232.753906 162.675781 234.5 C 158.933594 239.101562 153.066406 239.042969 149.292969 234.480469 C 148.222656 233.183594 147.179688 232.195312 145.496094 231.605469 C 142.660156 230.609375 141.070312 228.140625 139.859375 225.492188 C 139.496094 224.695312 139.054688 224.226562 138.179688 223.964844 C 136.210938 223.375 134.675781 222.027344 133.898438 220.199219 C 132.859375 217.761719 132.132812 215.179688 131.40625 212.625 C 131.199219 211.894531 130.976562 211.636719 130.257812 211.652344 C 128.984375 211.679688 127.707031 211.597656 126.4375 211.65625 C 125.472656 211.703125 124.898438 211.289062 124.617188 210.421875 C 123.746094 207.75 123.734375 205.078125 124.65625 202.414062 C 124.9375 201.605469 125.492188 201.191406 126.390625 201.21875 C 127.707031 201.253906 129.023438 201.203125 130.335938 201.234375 C 131.015625 201.253906 131.21875 200.988281 131.398438 200.320312 C 132.046875 197.957031 132.660156 195.558594 133.609375 193.308594 C 134.542969 191.089844 136.25 189.488281 138.664062 188.773438 C 139.046875 188.65625 139.417969 188.265625 139.648438 187.90625 C 140.496094 186.589844 141.191406 185.167969 142.113281 183.90625 C 143.277344 182.324219 144.914062 181.359375 146.804688 180.785156 C 147.355469 180.617188 147.867188 180.179688 148.292969 179.757812 C 149.3125 178.75 150.152344 177.519531 151.277344 176.660156 C 154.25 174.386719 157.996094 174.507812 160.941406 176.804688 C 163.226562 178.585938 164.621094 181 165.6875 183.632812 C 167.785156 188.824219 168.542969 194.292969 168.929688 199.824219 C 169.007812 200.90625 169.296875 201.257812 170.417969 201.253906 C 181.792969 201.214844 193.167969 201.222656 204.542969 201.246094 C 205.484375 201.25 205.851562 201.027344 205.925781 199.996094 C 206.3125 194.375 206.984375 188.777344 209.273438 183.578125 C 210.214844 181.4375 211.503906 179.328125 213.082031 177.625 C 216.367188 174.074219 221.378906 174.105469 224.722656 177.617188 C 226.328125 179.300781 227.835938 180.816406 230.105469 181.722656 C 232.644531 182.738281 233.910156 185.230469 235.089844 187.632812 C 235.308594 188.078125 235.71875 188.605469 236.152344 188.734375 C 238.761719 189.519531 240.488281 191.3125 241.484375 193.695312 C 242.355469 195.792969 242.882812 198.042969 243.453125 200.257812 C 243.636719 200.960938 243.828125 201.269531 244.589844 201.234375 C 245.820312 201.179688 247.054688 201.269531 248.28125 201.214844 C 249.332031 201.167969 249.992188 201.589844 250.296875 202.578125 C 251.09375 205.171875 251.09375 207.765625 250.292969 210.355469 C 250.007812 211.277344 249.40625 211.710938 248.386719 211.671875 C 246.828125 211.609375 245.265625 211.65625 243.914062 211.65625 Z M 187.574219 210.824219 C 195.882812 210.824219 204.195312 210.820312 212.507812 210.835938 C 213.292969 210.835938 213.898438 210.789062 214.140625 209.851562 C 214.726562 207.582031 214.753906 205.328125 214.128906 203.0625 C 213.925781 202.316406 213.496094 202.09375 212.742188 202.09375 C 195.992188 202.113281 179.238281 202.113281 162.488281 202.085938 C 161.566406 202.085938 161.058594 202.464844 161.023438 203.265625 C 160.929688 205.324219 160.894531 207.386719 160.957031 209.445312 C 160.988281 210.492188 161.640625 210.863281 162.761719 210.855469 C 171.03125 210.800781 179.304688 210.828125 187.574219 210.824219 Z M 148.847656 227.425781 C 149.046875 227.355469 149.242188 227.285156 149.4375 227.21875 C 149.394531 226.480469 149.421875 225.734375 149.300781 225.015625 C 148.082031 217.789062 147.234375 210.535156 147.535156 203.183594 C 147.648438 200.335938 147.777344 197.492188 147.863281 194.644531 C 147.882812 194.007812 147.761719 193.371094 147.703125 192.730469 C 147.554688 192.71875 147.40625 192.703125 147.257812 192.6875 C 145.742188 194.808594 145.59375 197.433594 144.90625 199.859375 C 144.792969 199.839844 144.679688 199.820312 144.566406 199.800781 C 145.113281 196.15625 145.660156 192.511719 146.207031 188.867188 C 146.929688 189.421875 147.632812 190.21875 147.875 190.097656 C 148.429688 189.820312 148.917969 189.152344 149.160156 188.535156 C 149.851562 186.753906 150.433594 184.933594 150.996094 183.105469 C 151.160156 182.578125 151.109375 181.980469 151.15625 181.414062 C 150.609375 181.492188 150.0625 181.578125 149.511719 181.648438 C 149.449219 181.65625 149.378906 181.59375 149.175781 181.507812 C 149.792969 180.714844 150.324219 179.890625 150.988281 179.195312 C 154.167969 175.863281 158.28125 175.800781 161.3125 179.273438 C 162.679688 180.835938 163.753906 182.761719 164.5625 184.6875 C 166.554688 189.441406 167.203125 194.515625 167.621094 199.617188 C 167.660156 200.089844 167.730469 200.5625 167.789062 201.03125 C 168.101562 200.753906 168.171875 200.492188 168.15625 200.234375 C 167.871094 195.378906 167.199219 190.589844 165.671875 185.953125 C 164.71875 183.0625 163.476562 180.320312 161.25 178.15625 C 158.125 175.121094 153.910156 175.105469 150.761719 178.101562 C 148.472656 180.28125 147.230469 183.066406 146.285156 186.003906 C 144.351562 192.007812 143.765625 198.214844 143.671875 204.480469 C 143.5625 211.726562 143.910156 218.933594 145.957031 225.953125 C 146.769531 228.746094 147.828125 231.425781 149.652344 233.734375 C 153.140625 238.140625 158.875 238.222656 162.269531 233.75 C 163.554688 232.050781 164.570312 230.066406 165.339844 228.066406 C 167.253906 223.101562 167.863281 217.855469 168.175781 212.574219 C 168.191406 212.359375 168.113281 212.136719 168.078125 211.917969 C 167.746094 212.332031 167.691406 212.761719 167.636719 213.191406 C 167.300781 215.890625 167.066406 218.605469 166.597656 221.28125 C 165.890625 225.320312 164.835938 229.277344 162.351562 232.644531 C 158.808594 237.441406 153.398438 237.40625 149.945312 232.570312 C 147.636719 229.339844 146.605469 225.601562 145.929688 221.75 C 146.390625 222.707031 146.746094 223.710938 147.21875 224.65625 C 147.699219 225.609375 148.300781 226.503906 148.847656 227.425781 Z M 228.984375 221.761719 C 228.144531 225.90625 227.101562 229.980469 224.332031 233.332031 C 221.183594 237.144531 216.183594 237.242188 213.160156 233.34375 C 211.730469 231.503906 210.652344 229.304688 209.808594 227.113281 C 208.101562 222.671875 207.625 217.953125 207.25 213.238281 C 207.214844 212.785156 207.109375 212.339844 207.039062 211.890625 C 206.734375 212.21875 206.671875 212.507812 206.710938 212.785156 C 207.210938 216.488281 207.5625 220.222656 208.289062 223.882812 C 209.035156 227.652344 210.34375 231.265625 212.96875 234.21875 C 216.265625 237.9375 221.261719 238.105469 224.554688 234.390625 C 225.933594 232.839844 227.007812 230.914062 227.832031 228.988281 C 229.957031 224.007812 230.664062 218.679688 231 213.320312 C 231.558594 204.503906 231.339844 195.726562 228.941406 187.140625 C 227.984375 183.722656 226.640625 180.460938 223.964844 177.960938 C 221.039062 175.230469 216.867188 175.148438 213.953125 177.886719 C 212.886719 178.890625 211.933594 180.097656 211.226562 181.378906 C 207.925781 187.386719 207.140625 194.011719 206.707031 200.707031 C 206.699219 200.816406 206.828125 200.9375 207.078125 201.382812 C 207.167969 200.570312 207.207031 200.121094 207.273438 199.675781 C 207.769531 196.269531 208.109375 192.835938 208.8125 189.472656 C 209.585938 185.753906 210.871094 182.183594 213.480469 179.269531 C 217.332031 174.964844 223.132812 176.445312 225.484375 181.53125 C 224.9375 181.484375 224.34375 181.429688 223.753906 181.375 C 223.8125 182.023438 223.769531 182.699219 223.949219 183.308594 C 224.40625 184.855469 224.945312 186.378906 225.480469 187.902344 C 225.6875 188.5 225.910156 189.113281 226.25 189.640625 C 226.726562 190.382812 227.320312 190.421875 227.859375 189.65625 C 228.019531 189.425781 228.148438 189.179688 228.289062 188.9375 C 228.429688 188.941406 228.570312 188.945312 228.710938 188.945312 C 229.238281 192.632812 229.769531 196.320312 230.296875 200.003906 C 230.183594 200.023438 230.066406 200.039062 229.953125 200.054688 C 229.132812 195.359375 228.433594 193.414062 227.125 192.652344 C 227.078125 193.453125 226.980469 194.148438 227.003906 194.84375 C 227.085938 197.222656 227.214844 199.601562 227.316406 201.980469 C 227.648438 209.707031 226.90625 217.355469 225.589844 224.960938 C 225.460938 225.710938 225.503906 226.488281 225.464844 227.253906 C 225.609375 227.285156 225.753906 227.320312 225.894531 227.355469 C 227.515625 225.839844 227.980469 223.644531 228.984375 221.761719 Z M 227.640625 231.109375 C 229.339844 231.023438 230.738281 230.199219 232.023438 228.71875 C 233.875 226.585938 234.910156 224.039062 235.683594 221.363281 C 236.933594 217.042969 237.363281 212.605469 237.433594 208.128906 C 237.542969 201.464844 237.125 194.859375 234.613281 188.578125 C 233.554688 185.921875 232.015625 183.605469 229.417969 182.199219 C 228.984375 181.964844 228.472656 181.871094 227.996094 181.714844 C 227.953125 181.808594 227.910156 181.898438 227.867188 181.988281 C 229.203125 183 230.542969 184.011719 231.878906 185.019531 C 231.914062 185.152344 231.953125 185.285156 231.992188 185.417969 C 230.253906 185.339844 230.550781 186.210938 230.855469 187.074219 C 231.449219 188.753906 232.007812 190.449219 232.675781 192.097656 C 232.878906 192.601562 233.320312 193.140625 233.789062 193.347656 C 234.003906 193.445312 234.554688 192.777344 235.175781 192.273438 C 235.640625 195.136719 236.097656 197.945312 236.554688 200.753906 C 235.5625 198.96875 235.539062 196.835938 233.886719 195.328125 C 233.617188 196.160156 233.476562 196.976562 233.46875 197.796875 C 233.445312 200.429688 233.59375 203.074219 233.449219 205.699219 C 233.144531 211.167969 232.6875 216.628906 232.308594 222.089844 C 232.269531 222.640625 232.351562 223.199219 232.375 223.753906 C 232.511719 223.792969 232.648438 223.835938 232.78125 223.875 C 233.46875 222.84375 234.15625 221.8125 234.839844 220.78125 C 234.558594 222.199219 234.171875 223.585938 233.535156 224.84375 C 232.886719 226.117188 232.121094 227.390625 231.15625 228.425781 C 230.238281 229.417969 228.996094 230.101562 227.640625 231.109375 Z M 147.003906 181.980469 C 146.921875 181.847656 146.835938 181.710938 146.75 181.574219 C 145.925781 182.027344 145.027344 182.378906 144.289062 182.945312 C 142.542969 184.289062 141.300781 186.039062 140.445312 188.085938 C 138.28125 193.277344 137.605469 198.742188 137.457031 204.296875 C 137.285156 210.570312 137.652344 216.800781 139.652344 222.816406 C 140.535156 225.460938 141.726562 227.96875 143.964844 229.761719 C 144.78125 230.414062 145.78125 230.835938 146.695312 231.367188 C 146.851562 231.203125 147.003906 231.042969 147.160156 230.882812 C 142.613281 228.777344 140.921875 224.800781 139.722656 220.191406 C 140.605469 221.558594 141.347656 222.714844 142.089844 223.871094 C 142.21875 223.804688 142.347656 223.738281 142.472656 223.675781 C 142.472656 222.632812 142.539062 221.589844 142.460938 220.558594 C 142.152344 216.449219 141.691406 212.351562 141.492188 208.238281 C 141.3125 204.550781 141.414062 200.84375 141.363281 197.148438 C 141.355469 196.546875 141.203125 195.945312 141.09375 195.207031 C 140.757812 195.40625 140.546875 195.453125 140.5 195.570312 C 139.816406 197.242188 139.15625 198.925781 138.492188 200.605469 C 138.441406 200.597656 138.386719 200.59375 138.332031 200.589844 C 138.789062 197.828125 139.242188 195.070312 139.703125 192.285156 C 140.339844 192.78125 140.902344 193.4375 141.109375 193.339844 C 141.578125 193.117188 142.003906 192.578125 142.210938 192.066406 C 142.875 190.417969 143.429688 188.71875 144.03125 187.042969 C 144.355469 186.132812 144.53125 185.308594 142.875 185.480469 C 142.890625 185.355469 142.902344 185.226562 142.917969 185.101562 C 144.28125 184.0625 145.640625 183.023438 147.003906 181.980469 Z M 138.808594 223.007812 C 137.785156 222.042969 136.605469 221.1875 135.773438 220.078125 C 134.90625 218.921875 134.375 217.519531 133.695312 216.222656 C 133.777344 216.179688 133.859375 216.140625 133.9375 216.097656 C 134.582031 216.789062 135.222656 217.480469 136.058594 218.382812 C 135.644531 211.90625 135.257812 205.84375 134.871094 199.78125 C 134.726562 199.734375 134.582031 199.6875 134.4375 199.644531 C 133.875 200.824219 133.308594 202.003906 132.746094 203.183594 C 132.699219 203.164062 132.652344 203.144531 132.605469 203.125 C 132.902344 201.308594 133.203125 199.492188 133.527344 197.53125 C 134.65625 198.617188 135.070312 198.5625 135.507812 197.398438 C 135.890625 196.367188 136.210938 195.308594 136.542969 194.253906 C 136.773438 193.523438 136.8125 192.875 135.589844 192.777344 C 136.6875 191.832031 137.785156 190.886719 138.882812 189.941406 C 138.78125 189.804688 138.683594 189.667969 138.582031 189.53125 C 137.769531 190.0625 136.875 190.5 136.164062 191.144531 C 134.542969 192.613281 133.671875 194.570312 133.082031 196.632812 C 131.449219 202.335938 131.375 208.113281 132.46875 213.917969 C 132.960938 216.527344 133.769531 219.03125 135.5 221.121094 C 136.335938 222.128906 137.300781 222.980469 138.808594 223.007812 Z M 242.273438 203.144531 C 242.222656 203.136719 242.167969 203.128906 242.117188 203.121094 C 241.542969 201.957031 240.96875 200.796875 240.390625 199.632812 C 240.265625 199.691406 240.136719 199.746094 240.011719 199.800781 C 239.621094 205.863281 239.234375 211.929688 238.84375 217.992188 C 238.921875 218.050781 238.996094 218.109375 239.074219 218.167969 C 239.703125 217.445312 240.332031 216.722656 240.960938 216 C 240.53125 217.417969 240.035156 218.84375 239.175781 220 C 238.328125 221.148438 237.117188 222.027344 236.0625 223.019531 C 236.15625 223.144531 236.25 223.273438 236.34375 223.398438 C 237.15625 222.855469 238.050781 222.40625 238.761719 221.757812 C 240.375 220.28125 241.238281 218.320312 241.828125 216.265625 C 243.445312 210.601562 243.460938 204.863281 242.417969 199.101562 C 241.960938 196.570312 241.136719 194.167969 239.574219 192.085938 C 238.707031 190.925781 237.648438 190.011719 236.222656 189.671875 C 236.144531 189.761719 236.066406 189.851562 235.988281 189.941406 C 237.089844 190.882812 238.195312 191.824219 239.296875 192.769531 C 239.339844 192.878906 239.386719 192.992188 239.429688 193.101562 C 237.839844 192.84375 238.15625 193.671875 238.363281 194.375 C 238.640625 195.308594 238.945312 196.242188 239.304688 197.148438 C 239.464844 197.5625 239.710938 198.117188 240.050781 198.242188 C 240.367188 198.355469 240.859375 197.988281 241.410156 197.78125 C 241.695312 199.5625 241.984375 201.355469 242.273438 203.144531 Z M 215.855469 178.976562 C 217.757812 179.277344 218.425781 179.621094 219.359375 181.09375 C 220.0625 182.199219 220.703125 183.371094 221.160156 184.59375 C 223.136719 189.851562 223.957031 195.351562 224.273438 200.925781 C 224.765625 209.589844 224.382812 218.191406 221.914062 226.574219 C 221.011719 229.644531 220.117188 232.792969 216.890625 234.449219 C 219.5 235.921875 223.144531 234.304688 224.367188 231.109375 C 222.941406 232.5 221.695312 233.996094 219.589844 233.753906 C 220.425781 231.925781 221.335938 230.253906 221.96875 228.484375 C 223.726562 223.566406 224.507812 218.441406 224.84375 213.25 C 225.4375 204.078125 225.199219 194.953125 222.398438 186.109375 C 221.722656 183.976562 220.367188 182.035156 219.15625 180.113281 C 218.527344 179.117188 217.402344 178.667969 215.855469 178.976562 Z M 150.3125 230.867188 C 151.828125 234.367188 155.519531 236.03125 158.007812 234.386719 C 155.582031 233.378906 154.664062 231.21875 153.777344 229.046875 C 153.441406 228.222656 153.160156 227.371094 152.929688 226.511719 C 149.804688 214.847656 149.597656 203.070312 151.894531 191.269531 C 152.511719 188.097656 153.761719 185.027344 154.957031 182.003906 C 155.597656 180.382812 156.816406 179.058594 158.839844 178.992188 C 156.992188 178.605469 155.707031 179.589844 154.976562 181.011719 C 153.761719 183.367188 152.582031 185.804688 151.84375 188.339844 C 150.265625 193.757812 149.789062 199.367188 149.792969 204.992188 C 149.800781 214.882812 150.386719 224.679688 155.292969 233.757812 C 153.066406 233.992188 151.8125 232.375 150.3125 230.867188 Z M 215.332031 216.582031 C 215.859375 216.246094 216.5625 216.023438 216.878906 215.546875 C 217.378906 214.785156 217.71875 213.878906 217.957031 212.988281 C 218.808594 209.792969 218.980469 206.523438 218.515625 203.269531 C 218.246094 201.363281 217.652344 199.488281 217.054688 197.648438 C 216.792969 196.84375 216.109375 196.257812 215.203125 196.539062 C 217.976562 203.164062 217.9375 209.703125 215.332031 216.582031 Z M 159.847656 216.304688 C 157.933594 213.246094 157.675781 209.875 157.675781 206.46875 C 157.675781 203.035156 157.933594 199.640625 159.921875 196.503906 C 158.269531 196.394531 157.761719 197.445312 157.371094 198.523438 C 156.058594 202.15625 155.902344 205.925781 156.359375 209.703125 C 156.578125 211.496094 157.113281 213.261719 157.648438 214.992188 C 157.929688 215.886719 158.558594 216.632812 159.847656 216.304688 Z M 125.765625 206.183594 C 125.769531 205.988281 125.769531 205.792969 125.769531 205.59375 C 127.03125 205.59375 128.292969 205.597656 129.550781 205.59375 C 131.066406 205.589844 131.101562 205.542969 130.839844 203.800781 C 129.257812 203.800781 127.640625 203.800781 126.023438 203.800781 C 125.980469 203.648438 125.933594 203.492188 125.890625 203.339844 C 126.230469 203.1875 126.5625 202.921875 126.910156 202.902344 C 128.007812 202.847656 129.113281 202.910156 130.214844 202.863281 C 130.519531 202.851562 130.816406 202.621094 131.117188 202.492188 C 131.082031 202.363281 131.046875 202.234375 131.015625 202.105469 C 129.539062 202.105469 128.0625 202.152344 126.59375 202.089844 C 125.777344 202.054688 125.425781 202.453125 125.257812 203.140625 C 124.71875 205.367188 124.683594 207.597656 125.289062 209.816406 C 125.382812 210.160156 125.652344 210.714844 125.859375 210.722656 C 127.585938 210.796875 129.320312 210.765625 131.050781 210.765625 C 131.070312 210.613281 131.085938 210.464844 131.105469 210.316406 C 130.800781 210.226562 130.503906 210.078125 130.195312 210.0625 C 129.433594 210.027344 128.667969 210.050781 127.90625 210.050781 C 125.871094 210.050781 125.441406 209.519531 125.847656 207.332031 C 127.5 207.332031 129.175781 207.332031 130.824219 207.332031 C 131.144531 206.335938 130.675781 206.171875 129.960938 206.179688 C 128.5625 206.195312 127.164062 206.183594 125.765625 206.183594 Z M 249.09375 207.339844 C 249.34375 209.652344 249 210.050781 246.910156 210.050781 C 246.148438 210.050781 245.382812 210.023438 244.621094 210.066406 C 244.332031 210.085938 244.050781 210.269531 243.769531 210.382812 C 243.792969 210.53125 243.816406 210.679688 243.84375 210.828125 C 245.292969 210.828125 246.75 210.777344 248.195312 210.84375 C 249.042969 210.882812 249.4375 210.527344 249.628906 209.765625 C 250.179688 207.582031 250.199219 205.394531 249.628906 203.21875 C 249.53125 202.839844 249.230469 202.226562 248.996094 202.214844 C 247.277344 202.128906 245.550781 202.167969 243.824219 202.167969 C 243.808594 202.324219 243.792969 202.484375 243.777344 202.640625 C 244.128906 202.722656 244.480469 202.863281 244.835938 202.871094 C 245.894531 202.90625 246.957031 202.847656 248.011719 202.910156 C 248.335938 202.929688 248.644531 203.210938 248.960938 203.375 C 248.914062 203.53125 248.863281 203.683594 248.8125 203.839844 C 247.191406 203.839844 245.574219 203.839844 243.976562 203.839844 C 243.808594 205.570312 243.847656 205.609375 245.359375 205.605469 C 246.617188 205.601562 247.871094 205.605469 249.128906 205.605469 C 249.125 205.792969 249.121094 205.984375 249.121094 206.171875 C 247.757812 206.171875 246.398438 206.132812 245.039062 206.199219 C 244.667969 206.214844 244.3125 206.546875 243.945312 206.734375 C 244.324219 206.933594 244.691406 207.292969 245.078125 207.3125 C 246.417969 207.382812 247.765625 207.339844 249.09375 207.339844 Z M 217.300781 224.269531 C 215.226562 225.65625 214.0625 225.460938 212.875 223.324219 C 212.324219 222.332031 211.808594 221.269531 211.550781 220.171875 C 210.96875 217.699219 210.503906 215.195312 210.109375 212.683594 C 209.949219 211.667969 209.597656 211.441406 208.5625 211.917969 C 208.792969 213.617188 208.945312 215.347656 209.277344 217.042969 C 209.851562 219.960938 210.449219 222.894531 212.257812 225.367188 C 213.683594 227.3125 215.242188 227.285156 216.648438 225.34375 C 216.894531 225.003906 217.085938 224.628906 217.300781 224.269531 Z M 166.277344 201.148438 C 166.140625 199.894531 166.058594 198.714844 165.875 197.554688 C 165.335938 194.101562 164.6875 190.671875 162.726562 187.679688 C 162.132812 186.769531 161.402344 185.929688 160.160156 186.15625 C 158.773438 186.410156 158.160156 187.5 157.453125 188.875 C 159.765625 187.300781 160.988281 187.539062 162.136719 189.855469 C 162.878906 191.363281 163.429688 193 163.828125 194.636719 C 164.347656 196.765625 164.628906 198.957031 165.019531 201.148438 C 165.398438 201.148438 165.761719 201.148438 166.277344 201.148438 Z M 209.960938 201.207031 C 210.074219 200.273438 210.160156 199.519531 210.265625 198.765625 C 210.691406 195.738281 211.179688 192.707031 212.667969 189.988281 C 213.113281 189.175781 213.824219 188.238281 214.617188 187.972656 C 215.355469 187.726562 216.363281 188.304688 217.1875 188.5 C 216.796875 187.386719 216.066406 186.277344 214.605469 186.125 C 213.304688 185.988281 212.519531 186.992188 211.941406 187.992188 C 209.613281 192.023438 209.035156 196.496094 208.609375 201.128906 C 209.121094 201.15625 209.480469 201.179688 209.960938 201.207031 Z M 157.6875 224.28125 C 158.28125 225.660156 158.96875 226.558594 160.1875 226.761719 C 161.402344 226.964844 162.164062 226.125 162.738281 225.210938 C 165.292969 221.125 165.800781 216.511719 166.253906 211.882812 C 164.972656 211.605469 164.96875 211.605469 164.820312 212.625 C 164.746094 213.128906 164.699219 213.632812 164.625 214.136719 C 164.15625 217.285156 163.636719 220.429688 162.0625 223.257812 C 160.902344 225.335938 159.863281 225.601562 157.6875 224.28125 Z M 157.6875 224.28125 " fill-opacity="1" fill-rule="nonzero"/></g><path fill="#ffffff" d="M 187.574219 210.824219 C 179.300781 210.828125 171.03125 210.800781 162.761719 210.855469 C 161.640625 210.863281 160.988281 210.492188 160.957031 209.445312 C 160.894531 207.386719 160.929688 205.324219 161.023438 203.265625 C 161.058594 202.464844 161.566406 202.085938 162.488281 202.085938 C 179.238281 202.113281 195.992188 202.113281 212.742188 202.09375 C 213.496094 202.09375 213.925781 202.316406 214.128906 203.0625 C 214.753906 205.328125 214.726562 207.582031 214.140625 209.851562 C 213.902344 210.789062 213.292969 210.835938 212.507812 210.835938 C 204.195312 210.820312 195.886719 210.824219 187.574219 210.824219 Z M 213.785156 207.429688 C 196.261719 207.429688 178.894531 207.429688 161.535156 207.429688 C 161.347656 209.699219 161.675781 210.074219 163.753906 210.074219 C 167.230469 210.070312 170.707031 210.070312 174.1875 210.070312 C 186.785156 210.070312 199.382812 210.054688 211.980469 210.09375 C 213.050781 210.097656 213.570312 209.773438 213.652344 208.730469 C 213.679688 208.355469 213.726562 207.984375 213.785156 207.429688 Z M 161.714844 203.246094 C 161.769531 203.382812 161.828125 203.515625 161.886719 203.652344 C 179.066406 203.652344 196.246094 203.652344 213.421875 203.652344 C 213.445312 203.488281 213.46875 203.328125 213.492188 203.167969 C 212.957031 203.066406 212.421875 202.875 211.886719 202.871094 C 198.179688 202.855469 184.46875 202.859375 170.761719 202.863281 C 168.132812 202.863281 165.5 202.84375 162.867188 202.878906 C 162.480469 202.882812 162.097656 203.117188 161.714844 203.246094 Z M 213.660156 206.035156 C 213.664062 205.933594 213.667969 205.832031 213.671875 205.730469 C 196.273438 205.730469 178.871094 205.730469 161.46875 205.730469 C 161.46875 205.832031 161.46875 205.933594 161.46875 206.035156 C 178.867188 206.035156 196.261719 206.035156 213.660156 206.035156 Z M 213.660156 206.035156 " fill-opacity="1" fill-rule="nonzero"/><path fill="#ffffff" d="M 148.847656 227.425781 C 148.300781 226.503906 147.699219 225.609375 147.21875 224.65625 C 146.746094 223.710938 146.390625 222.707031 145.925781 221.75 C 146.601562 225.601562 147.632812 229.339844 149.945312 232.574219 C 153.398438 237.40625 158.808594 237.441406 162.351562 232.644531 C 164.835938 229.277344 165.890625 225.320312 166.597656 221.28125 C 167.066406 218.605469 167.296875 215.890625 167.636719 213.191406 C 167.691406 212.761719 167.746094 212.332031 168.074219 211.921875 C 168.113281 212.136719 168.191406 212.359375 168.175781 212.574219 C 167.859375 217.855469 167.253906 223.101562 165.339844 228.066406 C 164.570312 230.066406 163.554688 232.050781 162.265625 233.75 C 158.875 238.222656 153.140625 238.140625 149.652344 233.734375 C 147.824219 231.425781 146.769531 228.746094 145.953125 225.953125 C 143.910156 218.933594 143.5625 211.730469 143.671875 204.480469 C 143.761719 198.214844 144.351562 192.007812 146.285156 186.003906 C 147.230469 183.066406 148.472656 180.28125 150.757812 178.105469 C 153.910156 175.105469 158.125 175.121094 161.25 178.160156 C 163.472656 180.320312 164.71875 183.0625 165.671875 185.953125 C 167.195312 190.589844 167.871094 195.382812 168.15625 200.238281 C 168.167969 200.496094 168.097656 200.757812 167.785156 201.035156 C 167.730469 200.5625 167.660156 200.09375 167.621094 199.621094 C 167.203125 194.519531 166.554688 189.441406 164.5625 184.691406 C 163.753906 182.761719 162.679688 180.835938 161.3125 179.273438 C 158.28125 175.800781 154.167969 175.867188 150.988281 179.195312 C 150.324219 179.890625 149.789062 180.714844 149.175781 181.507812 C 149.375 181.597656 149.449219 181.660156 149.511719 181.652344 C 150.058594 181.578125 150.605469 181.496094 151.15625 181.414062 C 151.109375 181.980469 151.160156 182.578125 150.996094 183.109375 C 150.433594 184.933594 149.847656 186.757812 149.15625 188.535156 C 148.917969 189.152344 148.429688 189.820312 147.875 190.101562 C 147.632812 190.222656 146.929688 189.421875 146.207031 188.867188 C 145.660156 192.515625 145.113281 196.160156 144.566406 199.800781 C 144.679688 199.820312 144.792969 199.839844 144.90625 199.859375 C 145.59375 197.433594 145.738281 194.808594 147.257812 192.6875 C 147.40625 192.703125 147.554688 192.71875 147.703125 192.734375 C 147.757812 193.371094 147.882812 194.011719 147.863281 194.644531 C 147.777344 197.492188 147.648438 200.339844 147.53125 203.183594 C 147.234375 210.535156 148.082031 217.789062 149.300781 225.015625 C 149.421875 225.738281 149.394531 226.484375 149.4375 227.21875 C 149.242188 227.285156 149.046875 227.355469 148.847656 227.425781 Z M 148.847656 227.425781 " fill-opacity="1" fill-rule="nonzero"/><path fill="#ffffff" d="M 228.984375 221.761719 C 227.980469 223.644531 227.515625 225.839844 225.894531 227.355469 C 225.75 227.320312 225.609375 227.285156 225.464844 227.253906 C 225.503906 226.488281 225.460938 225.710938 225.589844 224.960938 C 226.90625 217.355469 227.648438 209.707031 227.316406 201.980469 C 227.214844 199.597656 227.085938 197.222656 227.003906 194.839844 C 226.980469 194.148438 227.078125 193.453125 227.125 192.652344 C 228.433594 193.414062 229.132812 195.359375 229.953125 200.054688 C 230.066406 200.039062 230.179688 200.023438 230.296875 200.003906 C 229.769531 196.320312 229.238281 192.632812 228.710938 188.945312 C 228.570312 188.945312 228.429688 188.941406 228.289062 188.9375 C 228.148438 189.175781 228.019531 189.425781 227.859375 189.652344 C 227.320312 190.421875 226.726562 190.378906 226.25 189.640625 C 225.910156 189.113281 225.6875 188.5 225.476562 187.902344 C 224.941406 186.378906 224.402344 184.855469 223.949219 183.308594 C 223.769531 182.695312 223.8125 182.023438 223.753906 181.375 C 224.34375 181.429688 224.9375 181.480469 225.484375 181.53125 C 223.132812 176.445312 217.332031 174.964844 213.480469 179.269531 C 210.871094 182.183594 209.585938 185.753906 208.808594 189.472656 C 208.109375 192.835938 207.765625 196.269531 207.269531 199.675781 C 207.207031 200.121094 207.167969 200.570312 207.074219 201.382812 C 206.828125 200.9375 206.699219 200.816406 206.707031 200.707031 C 207.140625 194.011719 207.925781 187.382812 211.226562 181.378906 C 211.929688 180.097656 212.886719 178.890625 213.953125 177.886719 C 216.867188 175.148438 221.035156 175.230469 223.960938 177.960938 C 226.640625 180.460938 227.984375 183.71875 228.941406 187.140625 C 231.339844 195.726562 231.558594 204.503906 231 213.320312 C 230.664062 218.679688 229.957031 224.007812 227.832031 228.988281 C 227.007812 230.910156 225.933594 232.839844 224.554688 234.390625 C 221.261719 238.105469 216.265625 237.9375 212.964844 234.21875 C 210.34375 231.261719 209.03125 227.652344 208.285156 223.882812 C 207.5625 220.222656 207.210938 216.488281 206.710938 212.78125 C 206.671875 212.507812 206.734375 212.21875 207.039062 211.890625 C 207.109375 212.339844 207.214844 212.785156 207.25 213.238281 C 207.625 217.953125 208.101562 222.671875 209.808594 227.113281 C 210.652344 229.300781 211.730469 231.503906 213.160156 233.34375 C 216.183594 237.242188 221.183594 237.144531 224.332031 233.332031 C 227.097656 229.980469 228.144531 225.90625 228.984375 221.761719 Z M 228.984375 221.761719 " fill-opacity="1" fill-rule="nonzero"/><path fill="#ffffff" d="M 227.640625 231.109375 C 228.996094 230.101562 230.238281 229.417969 231.15625 228.425781 C 232.121094 227.390625 232.886719 226.117188 233.535156 224.84375 C 234.171875 223.585938 234.558594 222.199219 234.839844 220.78125 C 234.15625 221.8125 233.46875 222.84375 232.78125 223.875 C 232.648438 223.835938 232.511719 223.792969 232.375 223.753906 C 232.351562 223.199219 232.269531 222.640625 232.308594 222.089844 C 232.6875 216.625 233.144531 211.167969 233.449219 205.699219 C 233.59375 203.074219 233.445312 200.429688 233.46875 197.796875 C 233.476562 196.976562 233.617188 196.164062 233.886719 195.328125 C 235.539062 196.835938 235.5625 198.96875 236.554688 200.753906 C 236.097656 197.945312 235.640625 195.136719 235.175781 192.273438 C 234.554688 192.777344 234.003906 193.441406 233.789062 193.347656 C 233.320312 193.140625 232.878906 192.601562 232.675781 192.097656 C 232.007812 190.449219 231.449219 188.753906 230.855469 187.074219 C 230.550781 186.210938 230.253906 185.339844 231.992188 185.417969 C 231.953125 185.285156 231.917969 185.152344 231.878906 185.019531 C 230.542969 184.011719 229.203125 183 227.867188 181.988281 C 227.910156 181.898438 227.953125 181.808594 227.996094 181.714844 C 228.472656 181.871094 228.984375 181.964844 229.417969 182.199219 C 232.015625 183.605469 233.554688 185.921875 234.613281 188.578125 C 237.125 194.859375 237.542969 201.464844 237.433594 208.128906 C 237.363281 212.605469 236.933594 217.042969 235.683594 221.363281 C 234.910156 224.039062 233.875 226.585938 232.023438 228.71875 C 230.738281 230.199219 229.339844 231.023438 227.640625 231.109375 Z M 227.640625 231.109375 " fill-opacity="1" fill-rule="nonzero"/><path fill="#ffffff" d="M 147.003906 181.980469 C 145.640625 183.023438 144.28125 184.0625 142.917969 185.101562 C 142.902344 185.230469 142.890625 185.355469 142.878906 185.480469 C 144.53125 185.308594 144.359375 186.132812 144.03125 187.042969 C 143.429688 188.71875 142.875 190.417969 142.210938 192.070312 C 142.007812 192.578125 141.578125 193.117188 141.109375 193.339844 C 140.902344 193.4375 140.339844 192.78125 139.703125 192.285156 C 139.242188 195.070312 138.789062 197.828125 138.332031 200.589844 C 138.386719 200.59375 138.441406 200.601562 138.496094 200.605469 C 139.160156 198.925781 139.816406 197.242188 140.5 195.570312 C 140.546875 195.453125 140.757812 195.40625 141.097656 195.207031 C 141.203125 195.945312 141.355469 196.546875 141.363281 197.148438 C 141.414062 200.847656 141.3125 204.550781 141.492188 208.242188 C 141.691406 212.351562 142.152344 216.449219 142.460938 220.558594 C 142.539062 221.589844 142.472656 222.636719 142.472656 223.675781 C 142.347656 223.742188 142.21875 223.808594 142.09375 223.871094 C 141.347656 222.714844 140.605469 221.558594 139.726562 220.191406 C 140.921875 224.800781 142.613281 228.777344 147.160156 230.882812 C 147.007812 231.042969 146.851562 231.203125 146.695312 231.367188 C 145.78125 230.839844 144.78125 230.414062 143.964844 229.761719 C 141.726562 227.96875 140.535156 225.464844 139.65625 222.816406 C 137.652344 216.800781 137.285156 210.570312 137.457031 204.296875 C 137.605469 198.746094 138.28125 193.277344 140.449219 188.085938 C 141.304688 186.039062 142.542969 184.289062 144.289062 182.949219 C 145.027344 182.378906 145.925781 182.027344 146.753906 181.574219 C 146.835938 181.710938 146.921875 181.847656 147.003906 181.980469 Z M 147.003906 181.980469 " fill-opacity="1" fill-rule="nonzero"/><path fill="#ffffff" d="M 138.808594 223.007812 C 137.300781 222.980469 136.335938 222.128906 135.5 221.121094 C 133.769531 219.03125 132.960938 216.527344 132.46875 213.917969 C 131.375 208.113281 131.449219 202.335938 133.082031 196.632812 C 133.671875 194.570312 134.542969 192.613281 136.164062 191.144531 C 136.875 190.5 137.769531 190.0625 138.582031 189.53125 C 138.683594 189.667969 138.78125 189.804688 138.882812 189.941406 C 137.785156 190.886719 136.6875 191.832031 135.589844 192.777344 C 136.8125 192.875 136.773438 193.523438 136.542969 194.253906 C 136.214844 195.308594 135.890625 196.367188 135.507812 197.398438 C 135.070312 198.5625 134.65625 198.617188 133.527344 197.53125 C 133.203125 199.492188 132.902344 201.308594 132.605469 203.125 C 132.652344 203.144531 132.699219 203.164062 132.746094 203.183594 C 133.308594 202.003906 133.875 200.824219 134.4375 199.644531 C 134.582031 199.6875 134.726562 199.734375 134.871094 199.78125 C 135.257812 205.84375 135.644531 211.90625 136.058594 218.382812 C 135.222656 217.480469 134.582031 216.789062 133.9375 216.097656 C 133.859375 216.140625 133.777344 216.179688 133.695312 216.222656 C 134.375 217.519531 134.90625 218.921875 135.773438 220.078125 C 136.605469 221.1875 137.785156 222.042969 138.808594 223.007812 Z M 138.808594 223.007812 " fill-opacity="1" fill-rule="nonzero"/><path fill="#ffffff" d="M 242.273438 203.144531 C 241.984375 201.351562 241.695312 199.5625 241.40625 197.78125 C 240.859375 197.984375 240.367188 198.355469 240.046875 198.238281 C 239.707031 198.117188 239.464844 197.5625 239.304688 197.148438 C 238.945312 196.238281 238.640625 195.308594 238.363281 194.375 C 238.15625 193.671875 237.839844 192.84375 239.429688 193.101562 C 239.382812 192.988281 239.339844 192.878906 239.296875 192.769531 C 238.195312 191.824219 237.089844 190.882812 235.988281 189.9375 C 236.066406 189.851562 236.144531 189.761719 236.222656 189.671875 C 237.648438 190.011719 238.703125 190.925781 239.574219 192.082031 C 241.136719 194.167969 241.960938 196.570312 242.417969 199.101562 C 243.460938 204.863281 243.445312 210.597656 241.828125 216.265625 C 241.238281 218.320312 240.375 220.28125 238.761719 221.757812 C 238.046875 222.40625 237.15625 222.855469 236.34375 223.394531 C 236.25 223.269531 236.15625 223.144531 236.0625 223.019531 C 237.113281 222.023438 238.328125 221.148438 239.175781 220 C 240.035156 218.84375 240.53125 217.417969 240.960938 215.996094 C 240.332031 216.722656 239.703125 217.445312 239.074219 218.167969 C 238.996094 218.109375 238.921875 218.050781 238.84375 217.992188 C 239.230469 211.929688 239.621094 205.863281 240.007812 199.800781 C 240.136719 199.746094 240.265625 199.6875 240.390625 199.632812 C 240.964844 200.796875 241.542969 201.957031 242.117188 203.121094 C 242.167969 203.128906 242.222656 203.136719 242.273438 203.144531 Z M 242.273438 203.144531 " fill-opacity="1" fill-rule="nonzero"/><path fill="#ffffff" d="M 215.855469 178.976562 C 217.402344 178.667969 218.527344 179.117188 219.15625 180.113281 C 220.371094 182.035156 221.722656 183.980469 222.398438 186.109375 C 225.199219 194.953125 225.4375 204.078125 224.84375 213.253906 C 224.507812 218.441406 223.730469 223.566406 221.96875 228.484375 C 221.335938 230.253906 220.425781 231.925781 219.589844 233.753906 C 221.695312 233.996094 222.941406 232.5 224.367188 231.109375 C 223.148438 234.304688 219.5 235.921875 216.890625 234.449219 C 220.117188 232.792969 221.015625 229.644531 221.917969 226.574219 C 224.382812 218.191406 224.765625 209.589844 224.273438 200.925781 C 223.957031 195.351562 223.136719 189.851562 221.160156 184.59375 C 220.703125 183.371094 220.0625 182.199219 219.359375 181.09375 C 218.425781 179.621094 217.757812 179.277344 215.855469 178.976562 Z M 215.855469 178.976562 " fill-opacity="1" fill-rule="nonzero"/><path fill="#ffffff" d="M 150.3125 230.867188 C 151.8125 232.375 153.066406 233.992188 155.292969 233.757812 C 150.386719 224.679688 149.800781 214.882812 149.792969 204.992188 C 149.789062 199.367188 150.265625 193.757812 151.84375 188.339844 C 152.582031 185.804688 153.761719 183.367188 154.976562 181.007812 C 155.707031 179.589844 156.992188 178.605469 158.839844 178.992188 C 156.816406 179.058594 155.597656 180.382812 154.957031 182.003906 C 153.761719 185.027344 152.511719 188.097656 151.894531 191.269531 C 149.597656 203.070312 149.804688 214.847656 152.929688 226.511719 C 153.160156 227.371094 153.441406 228.222656 153.777344 229.046875 C 154.664062 231.21875 155.582031 233.378906 158.007812 234.386719 C 155.519531 236.03125 151.828125 234.367188 150.3125 230.867188 Z M 150.3125 230.867188 " fill-opacity="1" fill-rule="nonzero"/><path fill="#ffffff" d="M 215.332031 216.582031 C 217.9375 209.703125 217.976562 203.164062 215.203125 196.539062 C 216.109375 196.257812 216.792969 196.84375 217.054688 197.648438 C 217.652344 199.488281 218.246094 201.363281 218.515625 203.269531 C 218.980469 206.523438 218.808594 209.792969 217.957031 212.988281 C 217.71875 213.878906 217.378906 214.785156 216.878906 215.546875 C 216.5625 216.023438 215.859375 216.246094 215.332031 216.582031 Z M 215.332031 216.582031 " fill-opacity="1" fill-rule="nonzero"/><path fill="#ffffff" d="M 159.847656 216.304688 C 158.558594 216.632812 157.929688 215.886719 157.648438 214.992188 C 157.109375 213.261719 156.578125 211.496094 156.359375 209.703125 C 155.902344 205.925781 156.058594 202.15625 157.371094 198.523438 C 157.761719 197.445312 158.269531 196.394531 159.921875 196.503906 C 157.933594 199.640625 157.675781 203.035156 157.675781 206.46875 C 157.675781 209.875 157.933594 213.246094 159.847656 216.304688 Z M 159.847656 216.304688 " fill-opacity="1" fill-rule="nonzero"/><path fill="#ffffff" d="M 125.765625 206.183594 C 127.164062 206.183594 128.5625 206.195312 129.960938 206.179688 C 130.675781 206.171875 131.144531 206.335938 130.824219 207.332031 C 129.175781 207.332031 127.5 207.332031 125.847656 207.332031 C 125.441406 209.519531 125.871094 210.050781 127.90625 210.050781 C 128.667969 210.050781 129.433594 210.027344 130.195312 210.0625 C 130.503906 210.078125 130.800781 210.226562 131.105469 210.316406 C 131.085938 210.464844 131.070312 210.617188 131.050781 210.765625 C 129.320312 210.765625 127.585938 210.796875 125.859375 210.722656 C 125.652344 210.714844 125.382812 210.160156 125.289062 209.816406 C 124.683594 207.597656 124.71875 205.367188 125.257812 203.140625 C 125.425781 202.453125 125.777344 202.054688 126.589844 202.089844 C 128.0625 202.152344 129.539062 202.105469 131.015625 202.105469 C 131.046875 202.234375 131.082031 202.363281 131.117188 202.492188 C 130.816406 202.621094 130.519531 202.851562 130.214844 202.863281 C 129.113281 202.910156 128.007812 202.847656 126.910156 202.902344 C 126.5625 202.921875 126.230469 203.1875 125.890625 203.339844 C 125.933594 203.492188 125.980469 203.648438 126.023438 203.800781 C 127.640625 203.800781 129.257812 203.800781 130.839844 203.800781 C 131.101562 205.542969 131.066406 205.589844 129.550781 205.59375 C 128.292969 205.597656 127.03125 205.59375 125.769531 205.59375 C 125.769531 205.792969 125.769531 205.988281 125.765625 206.183594 Z M 125.765625 206.183594 " fill-opacity="1" fill-rule="nonzero"/><path fill="#ffffff" d="M 249.09375 207.339844 C 247.765625 207.339844 246.417969 207.382812 245.078125 207.3125 C 244.691406 207.289062 244.324219 206.933594 243.945312 206.730469 C 244.3125 206.546875 244.667969 206.214844 245.039062 206.199219 C 246.398438 206.132812 247.757812 206.171875 249.121094 206.171875 C 249.121094 205.984375 249.125 205.792969 249.128906 205.601562 C 247.871094 205.601562 246.617188 205.597656 245.359375 205.605469 C 243.847656 205.609375 243.808594 205.570312 243.976562 203.839844 C 245.574219 203.839844 247.191406 203.839844 248.8125 203.839844 C 248.863281 203.683594 248.914062 203.527344 248.960938 203.375 C 248.644531 203.210938 248.335938 202.929688 248.011719 202.910156 C 246.957031 202.847656 245.894531 202.902344 244.835938 202.871094 C 244.480469 202.859375 244.128906 202.722656 243.777344 202.640625 C 243.792969 202.480469 243.808594 202.324219 243.824219 202.167969 C 245.550781 202.167969 247.277344 202.128906 248.996094 202.214844 C 249.230469 202.226562 249.53125 202.839844 249.628906 203.21875 C 250.199219 205.394531 250.179688 207.582031 249.628906 209.765625 C 249.4375 210.523438 249.042969 210.882812 248.195312 210.84375 C 246.75 210.777344 245.292969 210.824219 243.84375 210.824219 C 243.816406 210.675781 243.792969 210.527344 243.769531 210.378906 C 244.054688 210.269531 244.332031 210.085938 244.621094 210.066406 C 245.382812 210.023438 246.148438 210.050781 246.910156 210.050781 C 249 210.050781 249.34375 209.652344 249.09375 207.339844 Z M 249.09375 207.339844 " fill-opacity="1" fill-rule="nonzero"/><path fill="#ffffff" d="M 217.300781 224.269531 C 217.085938 224.628906 216.894531 225.003906 216.648438 225.34375 C 215.242188 227.285156 213.683594 227.3125 212.257812 225.367188 C 210.449219 222.894531 209.851562 219.960938 209.277344 217.042969 C 208.945312 215.347656 208.792969 213.617188 208.5625 211.917969 C 209.597656 211.441406 209.949219 211.667969 210.109375 212.683594 C 210.503906 215.195312 210.96875 217.699219 211.550781 220.171875 C 211.808594 221.265625 212.324219 222.332031 212.878906 223.324219 C 214.0625 225.460938 215.226562 225.65625 217.300781 224.269531 Z M 217.300781 224.269531 " fill-opacity="1" fill-rule="nonzero"/><path fill="#ffffff" d="M 166.277344 201.148438 C 165.761719 201.148438 165.398438 201.148438 165.019531 201.148438 C 164.628906 198.957031 164.347656 196.765625 163.828125 194.636719 C 163.429688 193 162.878906 191.363281 162.136719 189.855469 C 160.988281 187.539062 159.765625 187.300781 157.453125 188.875 C 158.160156 187.5 158.773438 186.410156 160.160156 186.15625 C 161.402344 185.929688 162.132812 186.769531 162.726562 187.679688 C 164.6875 190.671875 165.335938 194.101562 165.875 197.554688 C 166.058594 198.71875 166.140625 199.894531 166.277344 201.148438 Z M 166.277344 201.148438 " fill-opacity="1" fill-rule="nonzero"/><path fill="#ffffff" d="M 209.960938 201.207031 C 209.480469 201.179688 209.121094 201.15625 208.609375 201.128906 C 209.035156 196.496094 209.613281 192.023438 211.941406 187.992188 C 212.519531 186.992188 213.304688 185.988281 214.605469 186.125 C 216.066406 186.277344 216.796875 187.386719 217.1875 188.5 C 216.363281 188.304688 215.355469 187.726562 214.617188 187.972656 C 213.824219 188.238281 213.113281 189.179688 212.667969 189.988281 C 211.179688 192.707031 210.691406 195.738281 210.265625 198.769531 C 210.160156 199.519531 210.074219 200.273438 209.960938 201.207031 Z M 209.960938 201.207031 " fill-opacity="1" fill-rule="nonzero"/><path fill="#ffffff" d="M 157.6875 224.28125 C 159.863281 225.601562 160.902344 225.335938 162.0625 223.253906 C 163.636719 220.429688 164.15625 217.285156 164.625 214.136719 C 164.699219 213.632812 164.746094 213.125 164.820312 212.625 C 164.96875 211.601562 164.972656 211.605469 166.253906 211.882812 C 165.804688 216.511719 165.292969 221.125 162.738281 225.210938 C 162.164062 226.125 161.402344 226.964844 160.1875 226.761719 C 158.96875 226.558594 158.28125 225.660156 157.6875 224.28125 Z M 157.6875 224.28125 " fill-opacity="1" fill-rule="nonzero"/><path fill="#000000" d="M 213.785156 207.429688 C 213.726562 207.984375 213.679688 208.355469 213.652344 208.730469 C 213.570312 209.773438 213.050781 210.097656 211.980469 210.09375 C 199.382812 210.054688 186.785156 210.070312 174.1875 210.070312 C 170.707031 210.070312 167.230469 210.070312 163.753906 210.074219 C 161.675781 210.074219 161.347656 209.699219 161.535156 207.429688 C 178.894531 207.429688 196.261719 207.429688 213.785156 207.429688 Z M 213.785156 207.429688 " fill-opacity="1" fill-rule="nonzero"/><path fill="#000000" d="M 161.714844 203.246094 C 162.097656 203.117188 162.480469 202.882812 162.867188 202.878906 C 165.5 202.84375 168.128906 202.863281 170.761719 202.859375 C 184.46875 202.859375 198.179688 202.855469 211.886719 202.871094 C 212.421875 202.871094 212.957031 203.066406 213.492188 203.167969 C 213.46875 203.328125 213.445312 203.488281 213.421875 203.652344 C 196.246094 203.652344 179.066406 203.652344 161.886719 203.652344 C 161.828125 203.515625 161.769531 203.382812 161.714844 203.246094 Z M 161.714844 203.246094 " fill-opacity="1" fill-rule="nonzero"/><path fill="#000000" d="M 213.660156 206.035156 C 196.261719 206.035156 178.867188 206.035156 161.46875 206.035156 C 161.46875 205.933594 161.46875 205.832031 161.46875 205.730469 C 178.871094 205.730469 196.273438 205.730469 213.671875 205.730469 C 213.667969 205.832031 213.664062 205.933594 213.660156 206.035156 Z M 213.660156 206.035156 " fill-opacity="1" fill-rule="nonzero"/><g clip-path="url(#0dcf79aa58)"><path fill="#000000" d="M 65.925781 261.890625 L 70.097656 264.53125 L 68.988281 259.554688 L 72.675781 256.207031 L 67.820312 255.777344 L 65.925781 251.085938 L 64.027344 255.777344 L 59.171875 256.207031 L 62.859375 259.554688 L 61.75 264.53125 Z M 65.925781 261.890625 " fill-opacity="1" fill-rule="nonzero"/></g><g fill="#000000" fill-opacity="1"><g transform="translate(77.695062, 263.821418)"><g><path d="M 2.875 -6.890625 L 2.0625 -6.78125 L 3.640625 -3.703125 L 5.21875 -6.78125 L 4.40625 -6.890625 L 4.40625 -7.546875 L 7 -7.546875 L 7 -6.890625 L 6.359375 -6.78125 L 4.125 -2.65625 L 4.125 -0.796875 L 4.96875 -0.65625 L 4.96875 0 L 2.265625 0 L 2.265625 -0.65625 L 3.109375 -0.796875 L 3.109375 -2.734375 L 0.921875 -6.78125 L 0.28125 -6.890625 L 0.28125 -7.546875 L 2.875 -7.546875 Z M 2.875 -6.890625 "/></g></g></g><g fill="#000000" fill-opacity="1"><g transform="translate(86.239869, 263.821418)"><g><path d="M 7.09375 -3.71875 C 7.09375 -2.613281 6.773438 -1.695312 6.140625 -0.96875 C 5.515625 -0.25 4.695312 0.109375 3.6875 0.109375 C 2.71875 0.109375 1.925781 -0.25 1.3125 -0.96875 C 0.707031 -1.695312 0.40625 -2.613281 0.40625 -3.71875 L 0.40625 -3.828125 C 0.40625 -4.921875 0.707031 -5.832031 1.3125 -6.5625 C 1.925781 -7.289062 2.71875 -7.65625 3.6875 -7.65625 C 4.695312 -7.65625 5.515625 -7.289062 6.140625 -6.5625 C 6.773438 -5.832031 7.09375 -4.921875 7.09375 -3.828125 Z M 6.0625 -3.828125 C 6.0625 -4.710938 5.851562 -5.429688 5.4375 -5.984375 C 5.019531 -6.535156 4.4375 -6.8125 3.6875 -6.8125 C 2.976562 -6.8125 2.425781 -6.53125 2.03125 -5.96875 C 1.632812 -5.414062 1.4375 -4.703125 1.4375 -3.828125 L 1.4375 -3.71875 C 1.4375 -2.832031 1.632812 -2.109375 2.03125 -1.546875 C 2.425781 -0.992188 2.976562 -0.71875 3.6875 -0.71875 C 4.445312 -0.71875 5.03125 -0.992188 5.4375 -1.546875 C 5.851562 -2.109375 6.0625 -2.832031 6.0625 -3.71875 Z M 6.0625 -3.828125 "/></g></g></g><g fill="#000000" fill-opacity="1"><g transform="translate(94.934684, 263.821418)"><g><path d="M 3.015625 -7.546875 L 3.015625 -6.890625 L 2.171875 -6.734375 L 2.171875 -2.421875 C 2.171875 -1.859375 2.332031 -1.425781 2.65625 -1.125 C 2.988281 -0.832031 3.421875 -0.6875 3.953125 -0.6875 C 4.503906 -0.6875 4.953125 -0.832031 5.296875 -1.125 C 5.640625 -1.414062 5.8125 -1.847656 5.8125 -2.421875 L 5.8125 -6.734375 L 4.96875 -6.890625 L 4.96875 -7.546875 L 7.671875 -7.546875 L 7.671875 -6.890625 L 6.828125 -6.734375 L 6.828125 -2.421875 C 6.828125 -1.609375 6.5625 -0.984375 6.03125 -0.546875 C 5.5 -0.109375 4.804688 0.109375 3.953125 0.109375 C 3.117188 0.109375 2.441406 -0.109375 1.921875 -0.546875 C 1.410156 -0.984375 1.15625 -1.609375 1.15625 -2.421875 L 1.15625 -6.734375 L 0.3125 -6.890625 L 0.3125 -7.546875 Z M 3.015625 -7.546875 "/></g></g></g><g fill="#000000" fill-opacity="1"><g transform="translate(104.126083, 263.821418)"><g><path d="M 3.671875 -7.53125 C 4.492188 -7.53125 5.125 -7.347656 5.5625 -6.984375 C 6.007812 -6.617188 6.234375 -6.101562 6.234375 -5.4375 C 6.234375 -5.070312 6.128906 -4.75 5.921875 -4.46875 C 5.710938 -4.1875 5.421875 -3.960938 5.046875 -3.796875 C 5.453125 -3.660156 5.742188 -3.441406 5.921875 -3.140625 C 6.109375 -2.835938 6.203125 -2.460938 6.203125 -2.015625 L 6.203125 -1.40625 C 6.203125 -1.175781 6.226562 -1.003906 6.28125 -0.890625 C 6.34375 -0.785156 6.441406 -0.722656 6.578125 -0.703125 L 6.828125 -0.671875 L 6.828125 0 L 6.28125 0 C 5.882812 0 5.601562 -0.132812 5.4375 -0.40625 C 5.269531 -0.6875 5.1875 -1.023438 5.1875 -1.421875 L 5.1875 -2 C 5.1875 -2.414062 5.066406 -2.75 4.828125 -3 C 4.585938 -3.25 4.269531 -3.375 3.875 -3.375 L 2.234375 -3.375 L 2.234375 -0.796875 L 3.078125 -0.65625 L 3.078125 0 L 0.375 0 L 0.375 -0.65625 L 1.21875 -0.796875 L 1.21875 -6.734375 L 0.375 -6.890625 L 0.375 -7.53125 Z M 2.234375 -4.171875 L 3.578125 -4.171875 C 4.140625 -4.171875 4.550781 -4.28125 4.8125 -4.5 C 5.070312 -4.71875 5.203125 -5.035156 5.203125 -5.453125 C 5.203125 -5.847656 5.078125 -6.160156 4.828125 -6.390625 C 4.578125 -6.617188 4.191406 -6.734375 3.671875 -6.734375 L 2.234375 -6.734375 Z M 2.234375 -4.171875 "/></g></g></g><g fill="#000000" fill-opacity="1"><g transform="translate(112.515706, 263.821418)"><g/></g></g><g fill="#000000" fill-opacity="1"><g transform="translate(116.368846, 263.821418)"><g><path d="M 0.375 -6.890625 L 0.375 -7.546875 L 3.078125 -7.546875 L 3.078125 -6.890625 L 2.234375 -6.734375 L 2.234375 -4.140625 L 5.890625 -4.140625 L 5.890625 -6.734375 L 5.046875 -6.890625 L 5.046875 -7.546875 L 7.75 -7.546875 L 7.75 -6.890625 L 6.90625 -6.734375 L 6.90625 -0.796875 L 7.75 -0.65625 L 7.75 0 L 5.046875 0 L 5.046875 -0.65625 L 5.890625 -0.796875 L 5.890625 -3.328125 L 2.234375 -3.328125 L 2.234375 -0.796875 L 3.078125 -0.65625 L 3.078125 0 L 0.375 0 L 0.375 -0.65625 L 1.21875 -0.796875 L 1.21875 -6.734375 Z M 0.375 -6.890625 "/></g></g></g><g fill="#000000" fill-opacity="1"><g transform="translate(125.725769, 263.821418)"><g><path d="M 0.375 0 L 0.375 -0.65625 L 1.21875 -0.796875 L 1.21875 -6.734375 L 0.375 -6.890625 L 0.375 -7.546875 L 6.15625 -7.546875 L 6.15625 -5.734375 L 5.28125 -5.734375 L 5.203125 -6.734375 L 2.234375 -6.734375 L 2.234375 -4.296875 L 5.125 -4.296875 L 5.125 -3.5 L 2.234375 -3.5 L 2.234375 -0.796875 L 5.265625 -0.796875 L 5.34375 -1.8125 L 6.21875 -1.8125 L 6.21875 0 Z M 0.375 0 "/></g></g></g><g fill="#000000" fill-opacity="1"><g transform="translate(133.701574, 263.821418)"><g><path d="M 0.28125 -0.65625 L 0.84375 -0.734375 L 3.484375 -7.546875 L 4.359375 -7.546875 L 6.953125 -0.734375 L 7.5 -0.65625 L 7.5 0 L 5.328125 0 L 5.328125 -0.65625 L 5.90625 -0.75 L 5.40625 -2.140625 L 2.390625 -2.140625 L 1.875 -0.75 L 2.4375 -0.65625 L 2.4375 0 L 0.28125 0 Z M 2.703125 -3 L 5.09375 -3 L 3.921875 -6.234375 L 3.890625 -6.234375 Z M 2.703125 -3 "/></g></g></g><g fill="#000000" fill-opacity="1"><g transform="translate(142.680888, 263.821418)"><g><path d="M 0.375 0 L 0.375 -0.65625 L 1.21875 -0.796875 L 1.21875 -6.734375 L 0.375 -6.890625 L 0.375 -7.546875 L 3.078125 -7.546875 L 3.078125 -6.890625 L 2.234375 -6.734375 L 2.234375 -0.796875 L 4.859375 -0.796875 L 4.9375 -1.65625 L 5.796875 -1.65625 L 5.796875 0 Z M 0.375 0 "/></g></g></g><g fill="#000000" fill-opacity="1"><g transform="translate(150.103211, 263.821418)"><g><path d="M 6.453125 -7.546875 L 6.453125 -5.875 L 5.59375 -5.875 L 5.515625 -6.734375 L 3.84375 -6.734375 L 3.84375 -0.796875 L 4.6875 -0.65625 L 4.6875 0 L 1.96875 0 L 1.96875 -0.65625 L 2.8125 -0.796875 L 2.8125 -6.734375 L 1.140625 -6.734375 L 1.0625 -5.875 L 0.1875 -5.875 L 0.1875 -7.546875 Z M 6.453125 -7.546875 "/></g></g></g><g fill="#000000" fill-opacity="1"><g transform="translate(157.965216, 263.821418)"><g><path d="M 0.375 -6.890625 L 0.375 -7.546875 L 3.078125 -7.546875 L 3.078125 -6.890625 L 2.234375 -6.734375 L 2.234375 -4.140625 L 5.890625 -4.140625 L 5.890625 -6.734375 L 5.046875 -6.890625 L 5.046875 -7.546875 L 7.75 -7.546875 L 7.75 -6.890625 L 6.90625 -6.734375 L 6.90625 -0.796875 L 7.75 -0.65625 L 7.75 0 L 5.046875 0 L 5.046875 -0.65625 L 5.890625 -0.796875 L 5.890625 -3.328125 L 2.234375 -3.328125 L 2.234375 -0.796875 L 3.078125 -0.65625 L 3.078125 0 L 0.375 0 L 0.375 -0.65625 L 1.21875 -0.796875 L 1.21875 -6.734375 Z M 0.375 -6.890625 "/></g></g></g><g fill="#000000" fill-opacity="1"><g transform="translate(167.322139, 263.821418)"><g/></g></g><g fill="#000000" fill-opacity="1"><g transform="translate(171.175279, 263.821418)"><g><path d="M 0.390625 -2.03125 C 0.390625 -2.445312 0.507812 -2.8125 0.75 -3.125 C 0.988281 -3.445312 1.351562 -3.769531 1.84375 -4.09375 C 1.570312 -4.425781 1.367188 -4.726562 1.234375 -5 C 1.109375 -5.269531 1.046875 -5.546875 1.046875 -5.828125 C 1.046875 -6.410156 1.210938 -6.859375 1.546875 -7.171875 C 1.878906 -7.492188 2.34375 -7.65625 2.9375 -7.65625 C 3.476562 -7.65625 3.921875 -7.492188 4.265625 -7.171875 C 4.609375 -6.859375 4.78125 -6.484375 4.78125 -6.046875 C 4.78125 -5.703125 4.6875 -5.40625 4.5 -5.15625 C 4.320312 -4.914062 4.054688 -4.664062 3.703125 -4.40625 L 3.140625 -4 L 4.90625 -1.875 C 5.039062 -2.101562 5.144531 -2.351562 5.21875 -2.625 C 5.300781 -2.894531 5.34375 -3.179688 5.34375 -3.484375 L 6.265625 -3.484375 C 6.265625 -3.035156 6.195312 -2.613281 6.0625 -2.21875 C 5.925781 -1.832031 5.726562 -1.488281 5.46875 -1.1875 L 6.4375 -0.03125 L 6.421875 0 L 5.234375 0 L 4.796875 -0.53125 C 4.515625 -0.320312 4.207031 -0.160156 3.875 -0.046875 C 3.539062 0.0546875 3.195312 0.109375 2.84375 0.109375 C 2.09375 0.109375 1.492188 -0.0859375 1.046875 -0.484375 C 0.609375 -0.878906 0.390625 -1.394531 0.390625 -2.03125 Z M 2.84375 -0.6875 C 3.09375 -0.6875 3.335938 -0.726562 3.578125 -0.8125 C 3.816406 -0.894531 4.046875 -1.019531 4.265625 -1.1875 L 2.390625 -3.4375 L 2.1875 -3.28125 C 1.863281 -3.050781 1.648438 -2.828125 1.546875 -2.609375 C 1.453125 -2.398438 1.40625 -2.207031 1.40625 -2.03125 C 1.40625 -1.644531 1.523438 -1.320312 1.765625 -1.0625 C 2.015625 -0.8125 2.375 -0.6875 2.84375 -0.6875 Z M 2.0625 -5.84375 C 2.0625 -5.65625 2.109375 -5.460938 2.203125 -5.265625 C 2.296875 -5.066406 2.4375 -4.847656 2.625 -4.609375 L 3.34375 -5.109375 C 3.53125 -5.242188 3.660156 -5.382812 3.734375 -5.53125 C 3.804688 -5.6875 3.84375 -5.859375 3.84375 -6.046875 C 3.84375 -6.253906 3.757812 -6.4375 3.59375 -6.59375 C 3.425781 -6.757812 3.207031 -6.84375 2.9375 -6.84375 C 2.65625 -6.84375 2.4375 -6.742188 2.28125 -6.546875 C 2.132812 -6.359375 2.0625 -6.125 2.0625 -5.84375 Z M 2.0625 -5.84375 "/></g></g></g><g fill="#000000" fill-opacity="1"><g transform="translate(179.063147, 263.821418)"><g/></g></g><g fill="#000000" fill-opacity="1"><g transform="translate(182.916292, 263.821418)"><g><path d="M 0.375 -0.65625 L 1.21875 -0.796875 L 1.21875 -6.734375 L 0.375 -6.890625 L 0.375 -7.546875 L 6.203125 -7.546875 L 6.203125 -5.734375 L 5.328125 -5.734375 L 5.25 -6.734375 L 2.234375 -6.734375 L 2.234375 -4.140625 L 5.15625 -4.140625 L 5.15625 -3.34375 L 2.234375 -3.34375 L 2.234375 -0.796875 L 3.078125 -0.65625 L 3.078125 0 L 0.375 0 Z M 0.375 -0.65625 "/></g></g></g><g fill="#000000" fill-opacity="1"><g transform="translate(190.721403, 263.821418)"><g><path d="M 0.359375 -6.890625 L 0.359375 -7.546875 L 3.078125 -7.546875 L 3.078125 -6.890625 L 2.234375 -6.734375 L 2.234375 -0.796875 L 3.078125 -0.65625 L 3.078125 0 L 0.359375 0 L 0.359375 -0.65625 L 1.203125 -0.796875 L 1.203125 -6.734375 Z M 0.359375 -6.890625 "/></g></g></g><g fill="#000000" fill-opacity="1"><g transform="translate(195.365976, 263.821418)"><g><path d="M 6.453125 -7.546875 L 6.453125 -5.875 L 5.59375 -5.875 L 5.515625 -6.734375 L 3.84375 -6.734375 L 3.84375 -0.796875 L 4.6875 -0.65625 L 4.6875 0 L 1.96875 0 L 1.96875 -0.65625 L 2.8125 -0.796875 L 2.8125 -6.734375 L 1.140625 -6.734375 L 1.0625 -5.875 L 0.1875 -5.875 L 0.1875 -7.546875 Z M 6.453125 -7.546875 "/></g></g></g><g fill="#000000" fill-opacity="1"><g transform="translate(203.227986, 263.821418)"><g><path d="M 7.75 -7.546875 L 7.75 -6.890625 L 6.90625 -6.734375 L 6.90625 0 L 5.890625 0 L 2.265625 -5.828125 L 2.234375 -5.8125 L 2.234375 -0.796875 L 3.078125 -0.65625 L 3.078125 0 L 0.375 0 L 0.375 -0.65625 L 1.21875 -0.796875 L 1.21875 -6.734375 L 0.375 -6.890625 L 0.375 -7.546875 L 2.234375 -7.546875 L 5.859375 -1.71875 L 5.890625 -1.734375 L 5.890625 -6.734375 L 5.046875 -6.890625 L 5.046875 -7.546875 Z M 7.75 -7.546875 "/></g></g></g><g fill="#000000" fill-opacity="1"><g transform="translate(212.51767, 263.821418)"><g><path d="M 0.375 0 L 0.375 -0.65625 L 1.21875 -0.796875 L 1.21875 -6.734375 L 0.375 -6.890625 L 0.375 -7.546875 L 6.15625 -7.546875 L 6.15625 -5.734375 L 5.28125 -5.734375 L 5.203125 -6.734375 L 2.234375 -6.734375 L 2.234375 -4.296875 L 5.125 -4.296875 L 5.125 -3.5 L 2.234375 -3.5 L 2.234375 -0.796875 L 5.265625 -0.796875 L 5.34375 -1.8125 L 6.21875 -1.8125 L 6.21875 0 Z M 0.375 0 "/></g></g></g><g fill="#000000" fill-opacity="1"><g transform="translate(220.49348, 263.821418)"><g><path d="M 5.828125 -5.3125 L 5.0625 -5.3125 L 4.859375 -6.390625 C 4.703125 -6.523438 4.492188 -6.632812 4.234375 -6.71875 C 3.984375 -6.800781 3.6875 -6.84375 3.34375 -6.84375 C 2.800781 -6.84375 2.382812 -6.726562 2.09375 -6.5 C 1.800781 -6.269531 1.65625 -5.972656 1.65625 -5.609375 C 1.65625 -5.273438 1.800781 -5 2.09375 -4.78125 C 2.394531 -4.5625 2.875 -4.367188 3.53125 -4.203125 C 4.320312 -4.003906 4.925781 -3.710938 5.34375 -3.328125 C 5.757812 -2.953125 5.96875 -2.476562 5.96875 -1.90625 C 5.96875 -1.300781 5.71875 -0.8125 5.21875 -0.4375 C 4.71875 -0.0703125 4.070312 0.109375 3.28125 0.109375 C 2.695312 0.109375 2.175781 0.015625 1.71875 -0.171875 C 1.269531 -0.367188 0.90625 -0.617188 0.625 -0.921875 L 0.625 -2.328125 L 1.390625 -2.328125 L 1.59375 -1.25 C 1.789062 -1.082031 2.023438 -0.945312 2.296875 -0.84375 C 2.566406 -0.738281 2.894531 -0.6875 3.28125 -0.6875 C 3.789062 -0.6875 4.191406 -0.796875 4.484375 -1.015625 C 4.785156 -1.234375 4.9375 -1.53125 4.9375 -1.90625 C 4.9375 -2.25 4.804688 -2.535156 4.546875 -2.765625 C 4.296875 -3.003906 3.84375 -3.203125 3.1875 -3.359375 C 2.382812 -3.546875 1.757812 -3.820312 1.3125 -4.1875 C 0.863281 -4.5625 0.640625 -5.03125 0.640625 -5.59375 C 0.640625 -6.175781 0.890625 -6.664062 1.390625 -7.0625 C 1.890625 -7.457031 2.539062 -7.65625 3.34375 -7.65625 C 3.875 -7.65625 4.351562 -7.5625 4.78125 -7.375 C 5.21875 -7.195312 5.566406 -6.976562 5.828125 -6.71875 Z M 5.828125 -5.3125 "/></g></g></g><g fill="#000000" fill-opacity="1"><g transform="translate(228.1641, 263.821418)"><g><path d="M 5.828125 -5.3125 L 5.0625 -5.3125 L 4.859375 -6.390625 C 4.703125 -6.523438 4.492188 -6.632812 4.234375 -6.71875 C 3.984375 -6.800781 3.6875 -6.84375 3.34375 -6.84375 C 2.800781 -6.84375 2.382812 -6.726562 2.09375 -6.5 C 1.800781 -6.269531 1.65625 -5.972656 1.65625 -5.609375 C 1.65625 -5.273438 1.800781 -5 2.09375 -4.78125 C 2.394531 -4.5625 2.875 -4.367188 3.53125 -4.203125 C 4.320312 -4.003906 4.925781 -3.710938 5.34375 -3.328125 C 5.757812 -2.953125 5.96875 -2.476562 5.96875 -1.90625 C 5.96875 -1.300781 5.71875 -0.8125 5.21875 -0.4375 C 4.71875 -0.0703125 4.070312 0.109375 3.28125 0.109375 C 2.695312 0.109375 2.175781 0.015625 1.71875 -0.171875 C 1.269531 -0.367188 0.90625 -0.617188 0.625 -0.921875 L 0.625 -2.328125 L 1.390625 -2.328125 L 1.59375 -1.25 C 1.789062 -1.082031 2.023438 -0.945312 2.296875 -0.84375 C 2.566406 -0.738281 2.894531 -0.6875 3.28125 -0.6875 C 3.789062 -0.6875 4.191406 -0.796875 4.484375 -1.015625 C 4.785156 -1.234375 4.9375 -1.53125 4.9375 -1.90625 C 4.9375 -2.25 4.804688 -2.535156 4.546875 -2.765625 C 4.296875 -3.003906 3.84375 -3.203125 3.1875 -3.359375 C 2.382812 -3.546875 1.757812 -3.820312 1.3125 -4.1875 C 0.863281 -4.5625 0.640625 -5.03125 0.640625 -5.59375 C 0.640625 -6.175781 0.890625 -6.664062 1.390625 -7.0625 C 1.890625 -7.457031 2.539062 -7.65625 3.34375 -7.65625 C 3.875 -7.65625 4.351562 -7.5625 4.78125 -7.375 C 5.21875 -7.195312 5.566406 -6.976562 5.828125 -6.71875 Z M 5.828125 -5.3125 "/></g></g></g><g fill="#000000" fill-opacity="1"><g transform="translate(235.834719, 263.821418)"><g/></g></g><g fill="#000000" fill-opacity="1"><g transform="translate(239.687865, 263.821418)"><g><path d="M 3.828125 -7.546875 C 4.640625 -7.546875 5.265625 -7.335938 5.703125 -6.921875 C 6.148438 -6.503906 6.375 -5.957031 6.375 -5.28125 C 6.375 -4.601562 6.148438 -4.054688 5.703125 -3.640625 C 5.265625 -3.234375 4.640625 -3.03125 3.828125 -3.03125 L 2.234375 -3.03125 L 2.234375 -0.796875 L 3.078125 -0.65625 L 3.078125 0 L 0.375 0 L 0.375 -0.65625 L 1.21875 -0.796875 L 1.21875 -6.734375 L 0.375 -6.890625 L 0.375 -7.546875 Z M 2.234375 -3.828125 L 3.828125 -3.828125 C 4.335938 -3.828125 4.71875 -3.960938 4.96875 -4.234375 C 5.226562 -4.503906 5.359375 -4.851562 5.359375 -5.28125 C 5.359375 -5.695312 5.226562 -6.039062 4.96875 -6.3125 C 4.71875 -6.59375 4.335938 -6.734375 3.828125 -6.734375 L 2.234375 -6.734375 Z M 2.234375 -3.828125 "/></g></g></g><g fill="#000000" fill-opacity="1"><g transform="translate(247.637811, 263.821418)"><g><path d="M 0.28125 -0.65625 L 0.84375 -0.734375 L 3.484375 -7.546875 L 4.359375 -7.546875 L 6.953125 -0.734375 L 7.5 -0.65625 L 7.5 0 L 5.328125 0 L 5.328125 -0.65625 L 5.90625 -0.75 L 5.40625 -2.140625 L 2.390625 -2.140625 L 1.875 -0.75 L 2.4375 -0.65625 L 2.4375 0 L 0.28125 0 Z M 2.703125 -3 L 5.09375 -3 L 3.921875 -6.234375 L 3.890625 -6.234375 Z M 2.703125 -3 "/></g></g></g><g fill="#000000" fill-opacity="1"><g transform="translate(256.617131, 263.821418)"><g><path d="M 3.671875 -7.53125 C 4.492188 -7.53125 5.125 -7.347656 5.5625 -6.984375 C 6.007812 -6.617188 6.234375 -6.101562 6.234375 -5.4375 C 6.234375 -5.070312 6.128906 -4.75 5.921875 -4.46875 C 5.710938 -4.1875 5.421875 -3.960938 5.046875 -3.796875 C 5.453125 -3.660156 5.742188 -3.441406 5.921875 -3.140625 C 6.109375 -2.835938 6.203125 -2.460938 6.203125 -2.015625 L 6.203125 -1.40625 C 6.203125 -1.175781 6.226562 -1.003906 6.28125 -0.890625 C 6.34375 -0.785156 6.441406 -0.722656 6.578125 -0.703125 L 6.828125 -0.671875 L 6.828125 0 L 6.28125 0 C 5.882812 0 5.601562 -0.132812 5.4375 -0.40625 C 5.269531 -0.6875 5.1875 -1.023438 5.1875 -1.421875 L 5.1875 -2 C 5.1875 -2.414062 5.066406 -2.75 4.828125 -3 C 4.585938 -3.25 4.269531 -3.375 3.875 -3.375 L 2.234375 -3.375 L 2.234375 -0.796875 L 3.078125 -0.65625 L 3.078125 0 L 0.375 0 L 0.375 -0.65625 L 1.21875 -0.796875 L 1.21875 -6.734375 L 0.375 -6.890625 L 0.375 -7.53125 Z M 2.234375 -4.171875 L 3.578125 -4.171875 C 4.140625 -4.171875 4.550781 -4.28125 4.8125 -4.5 C 5.070312 -4.71875 5.203125 -5.035156 5.203125 -5.453125 C 5.203125 -5.847656 5.078125 -6.160156 4.828125 -6.390625 C 4.578125 -6.617188 4.191406 -6.734375 3.671875 -6.734375 L 2.234375 -6.734375 Z M 2.234375 -4.171875 "/></g></g></g><g fill="#000000" fill-opacity="1"><g transform="translate(265.00676, 263.821418)"><g><path d="M 6.453125 -7.546875 L 6.453125 -5.875 L 5.59375 -5.875 L 5.515625 -6.734375 L 3.84375 -6.734375 L 3.84375 -0.796875 L 4.6875 -0.65625 L 4.6875 0 L 1.96875 0 L 1.96875 -0.65625 L 2.8125 -0.796875 L 2.8125 -6.734375 L 1.140625 -6.734375 L 1.0625 -5.875 L 0.1875 -5.875 L 0.1875 -7.546875 Z M 6.453125 -7.546875 "/></g></g></g><g fill="#000000" fill-opacity="1"><g transform="translate(272.868771, 263.821418)"><g><path d="M 7.75 -7.546875 L 7.75 -6.890625 L 6.90625 -6.734375 L 6.90625 0 L 5.890625 0 L 2.265625 -5.828125 L 2.234375 -5.8125 L 2.234375 -0.796875 L 3.078125 -0.65625 L 3.078125 0 L 0.375 0 L 0.375 -0.65625 L 1.21875 -0.796875 L 1.21875 -6.734375 L 0.375 -6.890625 L 0.375 -7.546875 L 2.234375 -7.546875 L 5.859375 -1.71875 L 5.890625 -1.734375 L 5.890625 -6.734375 L 5.046875 -6.890625 L 5.046875 -7.546875 Z M 7.75 -7.546875 "/></g></g></g><g fill="#000000" fill-opacity="1"><g transform="translate(282.158443, 263.821418)"><g><path d="M 0.375 0 L 0.375 -0.65625 L 1.21875 -0.796875 L 1.21875 -6.734375 L 0.375 -6.890625 L 0.375 -7.546875 L 6.15625 -7.546875 L 6.15625 -5.734375 L 5.28125 -5.734375 L 5.203125 -6.734375 L 2.234375 -6.734375 L 2.234375 -4.296875 L 5.125 -4.296875 L 5.125 -3.5 L 2.234375 -3.5 L 2.234375 -0.796875 L 5.265625 -0.796875 L 5.34375 -1.8125 L 6.21875 -1.8125 L 6.21875 0 Z M 0.375 0 "/></g></g></g><g fill="#000000" fill-opacity="1"><g transform="translate(290.134242, 263.821418)"><g><path d="M 3.671875 -7.53125 C 4.492188 -7.53125 5.125 -7.347656 5.5625 -6.984375 C 6.007812 -6.617188 6.234375 -6.101562 6.234375 -5.4375 C 6.234375 -5.070312 6.128906 -4.75 5.921875 -4.46875 C 5.710938 -4.1875 5.421875 -3.960938 5.046875 -3.796875 C 5.453125 -3.660156 5.742188 -3.441406 5.921875 -3.140625 C 6.109375 -2.835938 6.203125 -2.460938 6.203125 -2.015625 L 6.203125 -1.40625 C 6.203125 -1.175781 6.226562 -1.003906 6.28125 -0.890625 C 6.34375 -0.785156 6.441406 -0.722656 6.578125 -0.703125 L 6.828125 -0.671875 L 6.828125 0 L 6.28125 0 C 5.882812 0 5.601562 -0.132812 5.4375 -0.40625 C 5.269531 -0.6875 5.1875 -1.023438 5.1875 -1.421875 L 5.1875 -2 C 5.1875 -2.414062 5.066406 -2.75 4.828125 -3 C 4.585938 -3.25 4.269531 -3.375 3.875 -3.375 L 2.234375 -3.375 L 2.234375 -0.796875 L 3.078125 -0.65625 L 3.078125 0 L 0.375 0 L 0.375 -0.65625 L 1.21875 -0.796875 L 1.21875 -6.734375 L 0.375 -6.890625 L 0.375 -7.53125 Z M 2.234375 -4.171875 L 3.578125 -4.171875 C 4.140625 -4.171875 4.550781 -4.28125 4.8125 -4.5 C 5.070312 -4.71875 5.203125 -5.035156 5.203125 -5.453125 C 5.203125 -5.847656 5.078125 -6.160156 4.828125 -6.390625 C 4.578125 -6.617188 4.191406 -6.734375 3.671875 -6.734375 L 2.234375 -6.734375 Z M 2.234375 -4.171875 "/></g></g></g><g clip-path="url(#0400f74edf)"><path fill="#000000" d="M 308.871094 261.890625 L 313.046875 264.53125 L 311.9375 259.554688 L 315.625 256.207031 L 310.769531 255.777344 L 308.871094 251.085938 L 306.976562 255.777344 L 302.121094 256.207031 L 305.808594 259.554688 L 304.699219 264.53125 Z M 308.871094 261.890625 " fill-opacity="1" fill-rule="nonzero"/></g><g fill="#000000" fill-opacity="1"><g transform="translate(99.958966, 237.379776)"><g><path d="M 0.71875 0 L 0.71875 -5.84375 L 4.40625 -5.84375 L 4.40625 -5.28125 L 1.390625 -5.28125 L 1.390625 -3.25 L 4.25 -3.25 L 4.25 -2.6875 L 1.390625 -2.6875 L 1.390625 -0.5625 L 4.40625 -0.5625 L 4.40625 0 Z M 0.71875 0 "/></g></g></g><g fill="#000000" fill-opacity="1"><g transform="translate(105.056695, 237.379776)"><g><path d="M 2.578125 0.0625 C 1.660156 0.0625 0.929688 -0.179688 0.390625 -0.671875 L 0.640625 -1.1875 C 0.929688 -0.9375 1.226562 -0.757812 1.53125 -0.65625 C 1.832031 -0.5625 2.179688 -0.515625 2.578125 -0.515625 C 3.054688 -0.515625 3.421875 -0.601562 3.671875 -0.78125 C 3.921875 -0.96875 4.046875 -1.226562 4.046875 -1.5625 C 4.046875 -1.757812 3.984375 -1.914062 3.859375 -2.03125 C 3.742188 -2.15625 3.582031 -2.253906 3.375 -2.328125 C 3.175781 -2.398438 2.910156 -2.472656 2.578125 -2.546875 C 2.128906 -2.648438 1.757812 -2.757812 1.46875 -2.875 C 1.1875 -2.988281 0.953125 -3.148438 0.765625 -3.359375 C 0.585938 -3.578125 0.5 -3.863281 0.5 -4.21875 C 0.5 -4.550781 0.585938 -4.84375 0.765625 -5.09375 C 0.941406 -5.351562 1.1875 -5.550781 1.5 -5.6875 C 1.820312 -5.832031 2.195312 -5.90625 2.625 -5.90625 C 3.03125 -5.90625 3.40625 -5.84375 3.75 -5.71875 C 4.101562 -5.59375 4.398438 -5.410156 4.640625 -5.171875 L 4.375 -4.65625 C 4.101562 -4.882812 3.828125 -5.050781 3.546875 -5.15625 C 3.265625 -5.269531 2.957031 -5.328125 2.625 -5.328125 C 2.164062 -5.328125 1.804688 -5.226562 1.546875 -5.03125 C 1.296875 -4.84375 1.171875 -4.578125 1.171875 -4.234375 C 1.171875 -3.941406 1.28125 -3.722656 1.5 -3.578125 C 1.726562 -3.429688 2.078125 -3.300781 2.546875 -3.1875 C 3.046875 -3.070312 3.4375 -2.960938 3.71875 -2.859375 C 4.007812 -2.753906 4.25 -2.597656 4.4375 -2.390625 C 4.632812 -2.191406 4.734375 -1.921875 4.734375 -1.578125 C 4.734375 -1.253906 4.644531 -0.96875 4.46875 -0.71875 C 4.289062 -0.46875 4.039062 -0.273438 3.71875 -0.140625 C 3.394531 -0.00390625 3.015625 0.0625 2.578125 0.0625 Z M 2.578125 0.0625 "/></g></g></g><g fill="#000000" fill-opacity="1"><g transform="translate(110.441742, 237.379776)"><g><path d="M 2.125 0 L 2.125 -5.265625 L 0.09375 -5.265625 L 0.09375 -5.84375 L 4.84375 -5.84375 L 4.84375 -5.265625 L 2.8125 -5.265625 L 2.8125 0 Z M 2.125 0 "/></g></g></g><g fill="#000000" fill-opacity="1"><g transform="translate(115.662609, 237.379776)"><g><path d="M 0.71875 -5.84375 L 2.6875 -5.84375 C 3.613281 -5.84375 4.332031 -5.585938 4.84375 -5.078125 C 5.363281 -4.578125 5.625 -3.859375 5.625 -2.921875 C 5.625 -1.992188 5.363281 -1.273438 4.84375 -0.765625 C 4.332031 -0.253906 3.613281 0 2.6875 0 L 0.71875 0 Z M 2.640625 -0.578125 C 3.390625 -0.578125 3.953125 -0.769531 4.328125 -1.15625 C 4.710938 -1.550781 4.90625 -2.140625 4.90625 -2.921875 C 4.90625 -4.484375 4.148438 -5.265625 2.640625 -5.265625 L 1.390625 -5.265625 L 1.390625 -0.578125 Z M 2.640625 -0.578125 "/></g></g></g><g fill="#000000" fill-opacity="1"><g transform="translate(122.057344, 237.379776)"><g><path d="M 0.53125 -0.84375 L 1.375 -0.84375 L 1.375 0 L 0.53125 0 Z M 0.53125 -0.84375 "/></g></g></g><g fill="#000000" fill-opacity="1"><g transform="translate(254.524423, 237.379776)"><g><path d="M 4.4375 -0.5625 L 4.4375 0 L 0.6875 0 L 0.6875 -0.515625 L 2.71875 -2.765625 C 3 -3.078125 3.203125 -3.351562 3.328125 -3.59375 C 3.453125 -3.84375 3.515625 -4.09375 3.515625 -4.34375 C 3.515625 -4.664062 3.421875 -4.910156 3.234375 -5.078125 C 3.046875 -5.253906 2.78125 -5.34375 2.4375 -5.34375 C 1.875 -5.34375 1.320312 -5.117188 0.78125 -4.671875 L 0.53125 -5.1875 C 0.757812 -5.40625 1.046875 -5.578125 1.390625 -5.703125 C 1.742188 -5.835938 2.097656 -5.90625 2.453125 -5.90625 C 2.984375 -5.90625 3.40625 -5.765625 3.71875 -5.484375 C 4.03125 -5.210938 4.1875 -4.84375 4.1875 -4.375 C 4.1875 -4.039062 4.109375 -3.71875 3.953125 -3.40625 C 3.804688 -3.09375 3.5625 -2.75 3.21875 -2.375 L 1.546875 -0.5625 Z M 4.4375 -0.5625 "/></g></g></g><g fill="#000000" fill-opacity="1"><g transform="translate(259.720667, 237.379776)"><g><path d="M 2.453125 0.0625 C 1.785156 0.0625 1.28125 -0.1875 0.9375 -0.6875 C 0.59375 -1.195312 0.421875 -1.941406 0.421875 -2.921875 C 0.421875 -3.898438 0.59375 -4.640625 0.9375 -5.140625 C 1.28125 -5.648438 1.785156 -5.90625 2.453125 -5.90625 C 3.128906 -5.90625 3.640625 -5.648438 3.984375 -5.140625 C 4.328125 -4.640625 4.5 -3.898438 4.5 -2.921875 C 4.5 -1.941406 4.328125 -1.195312 3.984375 -0.6875 C 3.640625 -0.1875 3.128906 0.0625 2.453125 0.0625 Z M 2.453125 -0.5 C 2.921875 -0.5 3.265625 -0.695312 3.484375 -1.09375 C 3.710938 -1.488281 3.828125 -2.097656 3.828125 -2.921875 C 3.828125 -3.753906 3.71875 -4.363281 3.5 -4.75 C 3.28125 -5.132812 2.929688 -5.328125 2.453125 -5.328125 C 1.992188 -5.328125 1.648438 -5.132812 1.421875 -4.75 C 1.203125 -4.363281 1.09375 -3.753906 1.09375 -2.921875 C 1.09375 -2.097656 1.203125 -1.488281 1.421875 -1.09375 C 1.648438 -0.695312 1.992188 -0.5 2.453125 -0.5 Z M 2.453125 -0.5 "/></g></g></g><g fill="#000000" fill-opacity="1"><g transform="translate(264.91691, 237.379776)"><g><path d="M 4.4375 -0.5625 L 4.4375 0 L 0.6875 0 L 0.6875 -0.515625 L 2.71875 -2.765625 C 3 -3.078125 3.203125 -3.351562 3.328125 -3.59375 C 3.453125 -3.84375 3.515625 -4.09375 3.515625 -4.34375 C 3.515625 -4.664062 3.421875 -4.910156 3.234375 -5.078125 C 3.046875 -5.253906 2.78125 -5.34375 2.4375 -5.34375 C 1.875 -5.34375 1.320312 -5.117188 0.78125 -4.671875 L 0.53125 -5.1875 C 0.757812 -5.40625 1.046875 -5.578125 1.390625 -5.703125 C 1.742188 -5.835938 2.097656 -5.90625 2.453125 -5.90625 C 2.984375 -5.90625 3.40625 -5.765625 3.71875 -5.484375 C 4.03125 -5.210938 4.1875 -4.84375 4.1875 -4.375 C 4.1875 -4.039062 4.109375 -3.71875 3.953125 -3.40625 C 3.804688 -3.09375 3.5625 -2.75 3.21875 -2.375 L 1.546875 -0.5625 Z M 4.4375 -0.5625 "/></g></g></g><g fill="#000000" fill-opacity="1"><g transform="translate(270.113154, 237.379776)"><g><path d="M 3.265625 -3 C 3.609375 -2.90625 3.867188 -2.734375 4.046875 -2.484375 C 4.234375 -2.242188 4.328125 -1.941406 4.328125 -1.578125 C 4.328125 -1.066406 4.15625 -0.664062 3.8125 -0.375 C 3.46875 -0.0820312 3 0.0625 2.40625 0.0625 C 2.03125 0.0625 1.664062 0 1.3125 -0.125 C 0.96875 -0.25 0.675781 -0.429688 0.4375 -0.671875 L 0.703125 -1.1875 C 1.242188 -0.738281 1.804688 -0.515625 2.390625 -0.515625 C 2.804688 -0.515625 3.117188 -0.601562 3.328125 -0.78125 C 3.546875 -0.96875 3.65625 -1.242188 3.65625 -1.609375 C 3.65625 -2.328125 3.207031 -2.6875 2.3125 -2.6875 L 1.640625 -2.6875 L 1.640625 -3.25 L 2.1875 -3.25 C 2.613281 -3.25 2.941406 -3.34375 3.171875 -3.53125 C 3.398438 -3.726562 3.515625 -4.003906 3.515625 -4.359375 C 3.515625 -4.671875 3.421875 -4.910156 3.234375 -5.078125 C 3.046875 -5.253906 2.78125 -5.34375 2.4375 -5.34375 C 1.875 -5.34375 1.320312 -5.117188 0.78125 -4.671875 L 0.53125 -5.1875 C 0.757812 -5.40625 1.046875 -5.578125 1.390625 -5.703125 C 1.734375 -5.835938 2.085938 -5.90625 2.453125 -5.90625 C 2.984375 -5.90625 3.40625 -5.769531 3.71875 -5.5 C 4.03125 -5.238281 4.1875 -4.878906 4.1875 -4.421875 C 4.1875 -4.085938 4.101562 -3.796875 3.9375 -3.546875 C 3.78125 -3.296875 3.554688 -3.113281 3.265625 -3 Z M 3.265625 -3 "/></g></g></g></svg>